<?xml version="1.0" standalone="no"?>
<!DOCTYPE svg PUBLIC "-//W3C//DTD SVG 20010904//EN"
 "http://www.w3.org/TR/2001/REC-SVG-20010904/DTD/svg10.dtd">
<svg version="1.0" xmlns="http://www.w3.org/2000/svg"
 width="300.000000pt" height="300.000000pt" viewBox="0 0 300.000000 300.000000"
 preserveAspectRatio="xMidYMid meet">
<metadata>
Created by potrace 1.16, written by Peter Selinger 2001-2019
</metadata>
<g transform="translate(0.000000,300.000000) scale(0.100000,-0.100000)" stroke="none">
<path d="M1390 2874 c-8 -3 -28 -12 -45 -19 -16 -7 -88 -37 -160 -65 -71 -29
-154 -63 -183 -76 -29 -13 -56 -24 -60 -24 -4 0 -29 -11 -56 -25 -27 -14 -54
-25 -59 -25 -5 0 -43 -16 -84 -35 -41 -19 -77 -35 -80 -35 -3 0 -21 -7 -41
-16 -21 -9 -46 -20 -57 -24 -28 -12 -114 -50 -150 -65 -16 -8 -52 -23 -79 -35
-54 -24 -105 -71 -133 -122 -15 -28 -18 -57 -17 -203 1 -199 8 -251 69 -540
24 -115 83 -282 149 -427 14 -31 26 -62 26 -67 0 -6 5 -11 10 -11 6 0 10 -4
10 -10 0 -12 117 -221 130 -230 3 -3 23 -30 43 -60 20 -30 50 -71 67 -90 104
-122 133 -152 205 -217 114 -103 134 -120 190 -155 28 -18 52 -35 55 -39 13
-18 212 -121 267 -139 66 -20 141 -8 241 41 74 36 182 99 217 126 6 4 28 21
50 38 113 84 271 240 364 357 96 123 141 183 141 191 0 4 19 37 41 74 85 138
187 377 229 538 5 17 16 57 24 89 17 59 30 134 47 256 5 36 12 147 15 248 6
177 6 185 -16 227 -24 47 -78 102 -120 122 -14 7 -47 22 -75 33 -27 12 -63 28
-79 36 -16 8 -33 14 -38 14 -4 0 -31 11 -60 25 -28 14 -55 25 -59 25 -4 0 -42
16 -83 35 -42 19 -79 35 -82 35 -3 0 -38 14 -77 31 -40 16 -81 34 -92 38 -11
5 -47 20 -80 34 -33 14 -88 37 -121 51 -34 14 -64 26 -68 26 -3 0 -36 14 -73
32 -58 26 -82 32 -158 34 -49 2 -97 1 -105 -2z m155 -195 c5 -5 16 -9 25 -9 8
0 37 -11 64 -25 27 -14 54 -25 59 -25 10 0 62 -22 120 -51 22 -10 43 -19 48
-19 6 0 31 -10 57 -21 26 -12 106 -45 177 -74 72 -29 156 -64 187 -79 31 -14
59 -26 62 -26 3 0 29 -11 58 -23 29 -13 78 -34 108 -46 31 -12 62 -32 70 -44
20 -32 20 -145 0 -332 -30 -280 -87 -475 -216 -740 -72 -147 -121 -225 -229
-361 -103 -129 -228 -251 -340 -332 -6 -4 -27 -19 -47 -34 -20 -16 -39 -28
-42 -28 -3 0 -29 -15 -58 -33 -70 -44 -143 -77 -169 -77 -21 0 -90 32 -198 92
-119 66 -321 244 -424 373 -26 33 -55 68 -63 78 -40 48 -103 149 -159 252 -35
64 -41 77 -63 125 -11 25 -27 60 -36 79 -9 19 -16 38 -16 44 0 5 -6 23 -14 40
-22 47 -41 111 -65 212 -12 50 -26 106 -31 125 -19 70 -35 238 -35 374 0 136
0 139 25 157 23 17 145 72 231 104 20 7 60 24 90 38 30 13 65 28 79 32 14 4
50 19 80 32 30 13 64 28 75 33 11 4 36 15 55 23 19 9 58 25 86 36 28 11 71 29
95 40 155 70 275 111 309 105 19 -3 39 -10 45 -15z"/>
<path d="M1423 2350 c-22 -20 -28 -39 -38 -133 -9 -77 -35 -121 -91 -148 -71
-34 -116 -24 -205 46 -65 51 -77 56 -108 51 -46 -7 -71 -34 -78 -82 -4 -35 0
-44 42 -93 83 -97 95 -150 49 -228 -31 -53 -90 -83 -163 -83 -66 0 -110 -17
-122 -47 -15 -40 -10 -80 14 -107 19 -22 33 -27 97 -32 83 -6 113 -17 150 -54
57 -56 66 -134 24 -196 -15 -21 -30 -41 -33 -44 -25 -18 -61 -82 -61 -107 0
-46 40 -83 89 -83 32 0 50 9 93 44 79 64 122 80 175 65 81 -22 133 -95 133
-189 0 -19 5 -51 10 -71 8 -29 17 -38 50 -49 32 -11 45 -11 70 0 38 16 45 33
54 122 3 37 10 77 15 90 13 35 74 85 119 99 52 15 86 3 165 -63 49 -41 64 -48
101 -48 47 0 70 17 81 63 9 36 1 67 -28 97 -76 83 -95 136 -72 205 27 77 76
109 185 119 91 8 120 29 120 88 0 22 -4 48 -10 58 -13 24 -61 40 -124 40 -63
1 -110 24 -148 71 -24 30 -29 46 -30 92 -1 50 2 60 37 106 22 28 42 51 45 51
12 0 30 50 30 81 0 21 -10 40 -30 61 -27 26 -36 30 -67 25 -22 -4 -50 -20 -72
-41 -58 -56 -114 -80 -168 -72 -98 13 -150 88 -152 219 -1 37 -7 54 -26 72
-31 32 -91 34 -122 5z m100 -414 c56 -41 98 -58 166 -64 l66 -7 6 -55 c9 -77
22 -113 64 -171 l36 -51 -36 -52 c-40 -59 -65 -130 -65 -188 0 -38 0 -38 -40
-38 -55 0 -141 -32 -198 -73 l-47 -34 -25 24 c-35 35 -126 74 -187 80 -51 6
-53 7 -53 37 0 41 -39 155 -60 176 -3 3 -15 19 -27 37 -18 25 -20 34 -10 45
46 48 97 178 97 246 0 17 10 20 68 25 64 5 122 24 122 40 0 4 5 7 11 7 6 0 22
9 36 20 33 25 38 25 76 -4z"/>
<path d="M1355 1758 c-34 -19 -44 -41 -45 -90 0 -43 3 -48 36 -68 63 -40 144
2 144 73 -1 68 -79 117 -135 85z"/>
<path d="M1530 1583 c-36 -13 -50 -36 -50 -84 0 -39 4 -51 26 -68 37 -29 85
-27 123 5 78 66 -1 183 -99 147z"/>
</g>
</svg>
