<svg id="svg" version="1.1" xmlns="http://www.w3.org/2000/svg" xmlns:xlink="http://www.w3.org/1999/xlink" width="400" height="400" viewBox="0, 0, 400,400"><g id="svgg"><path id="path0" d="M94.940 59.503 C 95.044 59.672,94.515 59.782,93.763 59.746 C 93.012 59.711,92.295 59.846,92.171 60.048 C 92.046 60.249,91.790 60.317,91.600 60.200 C 91.410 60.083,91.140 60.173,91.000 60.400 C 90.860 60.627,90.577 60.709,90.372 60.583 C 90.168 60.456,90.000 60.554,90.000 60.800 C 90.000 61.046,89.820 61.136,89.600 61.000 C 89.380 60.864,89.200 60.954,89.200 61.200 C 89.200 61.446,89.019 61.535,88.797 61.398 C 88.576 61.261,88.287 61.430,88.155 61.772 C 88.024 62.115,87.763 62.301,87.576 62.185 C 87.388 62.069,86.917 62.475,86.527 63.087 C 86.138 63.699,85.586 64.346,85.301 64.525 C 85.016 64.703,84.886 65.016,85.012 65.220 C 85.138 65.424,84.962 65.484,84.621 65.353 C 84.218 65.198,84.000 65.341,84.000 65.757 C 84.000 66.111,83.809 66.400,83.576 66.400 C 83.343 66.400,83.264 66.580,83.400 66.800 C 83.536 67.020,83.469 67.200,83.251 67.200 C 82.925 67.200,82.321 68.365,82.214 69.200 C 82.199 69.310,82.034 69.643,81.846 69.940 C 81.566 70.382,81.676 70.396,82.452 70.018 C 83.261 69.624,83.239 69.681,82.300 70.411 C 81.123 71.326,80.808 72.236,81.800 71.855 C 82.130 71.729,82.400 71.799,82.400 72.013 C 82.400 72.226,82.130 72.400,81.800 72.400 C 80.989 72.400,81.042 73.182,81.900 73.886 C 82.285 74.201,82.375 74.345,82.100 74.206 C 81.825 74.067,81.600 74.143,81.600 74.376 C 81.600 74.609,81.735 74.800,81.900 74.800 C 82.065 74.800,82.200 122.950,82.200 181.800 C 82.200 240.650,82.065 288.800,81.900 288.800 C 81.735 288.800,81.597 240.695,81.594 181.900 C 81.590 113.575,81.448 74.783,81.200 74.400 C 80.772 73.738,80.619 287.796,81.046 289.930 C 81.181 290.606,81.586 291.237,81.946 291.333 C 82.513 291.484,82.507 291.513,81.900 291.554 C 81.071 291.609,81.068 291.628,81.665 293.074 C 81.920 293.693,82.100 294.335,82.065 294.500 C 82.029 294.665,82.191 294.800,82.424 294.800 C 82.657 294.800,82.736 294.980,82.600 295.200 C 82.464 295.420,82.554 295.600,82.800 295.600 C 83.046 295.600,83.117 295.811,82.958 296.068 C 82.756 296.395,82.900 296.448,83.434 296.244 C 84.022 296.021,84.091 296.063,83.731 296.425 C 83.209 296.951,83.479 298.122,84.042 297.774 C 84.239 297.652,84.400 297.780,84.400 298.057 C 84.400 298.862,86.841 301.159,87.448 300.926 C 87.766 300.804,88.000 300.969,88.000 301.314 C 88.000 301.644,88.285 302.024,88.633 302.157 C 89.539 302.505,89.685 302.461,89.362 301.938 C 89.184 301.650,89.252 301.585,89.545 301.766 C 89.802 301.925,89.926 302.197,89.819 302.369 C 89.712 302.542,90.063 302.883,90.598 303.126 C 91.210 303.405,91.660 303.427,91.809 303.185 C 91.940 302.973,92.352 302.813,92.724 302.828 C 93.275 302.851,93.252 302.920,92.600 303.200 C 92.020 303.449,91.965 303.568,92.400 303.633 C 92.730 303.682,93.180 303.764,93.400 303.815 C 93.620 303.866,93.980 303.939,94.200 303.976 C 94.420 304.014,99.767 304.025,106.083 304.001 L 117.566 303.958 117.739 316.079 C 117.938 329.954,117.919 329.600,118.448 329.600 C 118.668 329.600,118.760 329.741,118.653 329.914 C 118.546 330.087,118.808 330.942,119.236 331.814 C 119.663 332.686,119.928 333.091,119.824 332.713 C 119.720 332.335,119.789 331.930,119.978 331.814 C 120.166 331.697,120.283 332.142,120.237 332.801 C 120.184 333.564,120.344 334.000,120.677 334.000 C 120.965 334.000,121.200 334.191,121.200 334.424 C 121.200 334.657,120.975 334.720,120.700 334.565 C 120.425 334.410,120.912 335.029,121.781 335.941 C 122.651 336.854,123.577 337.600,123.838 337.600 C 124.100 337.600,124.422 337.881,124.554 338.225 C 124.686 338.569,124.976 338.739,125.197 338.602 C 125.419 338.465,125.600 338.579,125.600 338.856 C 125.600 339.248,125.707 339.253,126.080 338.880 C 126.868 338.092,127.688 338.291,127.400 339.200 C 127.236 339.718,127.332 340.011,127.673 340.031 C 128.288 340.066,128.957 340.202,130.566 340.618 C 131.550 340.873,131.692 340.817,131.478 340.260 C 131.161 339.433,131.566 339.401,132.156 340.206 C 132.506 340.684,245.540 341.249,247.700 340.784 C 247.755 340.772,248.740 340.723,249.888 340.674 C 251.424 340.609,252.139 340.376,252.594 339.793 C 252.934 339.357,253.164 339.207,253.106 339.460 C 253.048 339.713,253.180 339.927,253.400 339.937 C 253.620 339.946,253.781 339.730,253.758 339.457 C 253.735 339.185,254.092 338.933,254.553 338.898 C 255.205 338.849,255.261 338.915,254.807 339.196 C 254.486 339.394,254.368 339.701,254.544 339.878 C 254.721 340.054,255.091 339.890,255.367 339.513 C 255.654 339.121,256.024 338.975,256.234 339.172 C 256.789 339.694,258.514 338.911,258.149 338.303 C 257.970 338.005,258.146 338.043,258.581 338.397 C 259.265 338.953,259.295 338.925,259.016 337.997 C 258.735 337.060,258.752 337.045,259.298 337.761 C 259.705 338.294,259.964 338.382,260.167 338.054 C 260.325 337.797,260.642 337.702,260.870 337.844 C 261.138 338.009,261.192 337.761,261.024 337.150 C 260.805 336.358,260.834 336.314,261.195 336.889 C 261.643 337.603,266.000 335.975,266.000 335.093 C 266.000 334.906,265.792 334.881,265.538 335.038 C 265.245 335.219,265.185 335.147,265.374 334.842 C 265.602 334.474,265.803 334.471,266.236 334.830 C 266.757 335.262,266.973 335.066,266.841 334.281 C 266.812 334.106,267.105 334.016,267.494 334.081 C 267.910 334.151,268.155 333.983,268.090 333.670 C 268.024 333.354,268.170 333.258,268.451 333.431 C 268.716 333.595,269.157 333.400,269.461 332.985 C 269.757 332.579,270.000 332.407,270.000 332.602 C 270.000 332.797,270.630 332.346,271.400 331.600 C 272.170 330.854,272.800 329.908,272.800 329.498 C 272.800 329.088,272.967 328.856,273.171 328.982 C 273.375 329.108,273.657 328.849,273.798 328.406 C 273.939 327.963,274.232 327.600,274.451 327.600 C 274.669 327.600,274.712 327.375,274.547 327.100 C 274.354 326.778,274.495 326.802,274.943 327.165 C 275.737 327.810,279.600 324.486,279.600 323.159 C 279.600 322.790,279.974 322.064,280.430 321.544 C 280.887 321.025,281.139 320.837,280.990 321.127 C 280.806 321.486,280.956 321.613,281.460 321.527 C 282.552 321.340,286.400 317.587,286.400 316.709 C 286.400 316.293,286.567 316.056,286.771 316.182 C 286.975 316.308,287.257 316.049,287.398 315.606 C 287.539 315.163,287.832 314.800,288.051 314.800 C 288.269 314.800,288.312 314.575,288.147 314.300 C 287.954 313.978,288.095 314.002,288.543 314.365 C 289.337 315.010,293.200 311.686,293.200 310.359 C 293.200 309.990,293.574 309.264,294.030 308.744 C 294.487 308.225,294.739 308.037,294.590 308.327 C 294.406 308.686,294.556 308.813,295.060 308.727 C 296.152 308.540,300.000 304.787,300.000 303.909 C 300.000 303.493,300.167 303.256,300.371 303.382 C 300.575 303.508,300.857 303.249,300.998 302.806 C 301.139 302.363,301.432 302.000,301.651 302.000 C 301.869 302.000,301.912 301.775,301.747 301.500 C 301.554 301.178,301.695 301.202,302.143 301.565 C 302.933 302.207,306.800 298.889,306.800 297.569 C 306.800 296.591,308.411 294.719,309.043 294.961 C 309.344 295.077,309.571 295.043,309.548 294.886 C 309.431 294.099,309.642 293.579,309.992 293.795 C 310.533 294.130,312.078 293.249,311.784 292.773 C 311.652 292.561,311.349 292.508,311.111 292.655 C 310.849 292.817,310.792 292.737,310.966 292.455 C 311.125 292.198,311.396 292.074,311.569 292.181 C 311.741 292.287,312.224 292.097,312.641 291.758 C 313.058 291.418,313.175 291.255,312.900 291.394 C 312.625 291.533,312.400 291.457,312.400 291.224 C 312.400 290.991,312.664 290.800,312.987 290.800 C 313.344 290.800,313.485 290.565,313.346 290.202 C 313.219 289.874,312.942 289.712,312.729 289.844 C 312.515 289.976,312.579 289.701,312.870 289.233 L 313.400 288.382 313.618 289.291 C 313.828 290.164,313.849 290.169,314.144 289.400 C 314.313 288.960,314.434 288.549,314.412 288.486 C 314.389 288.423,314.650 288.093,314.989 287.753 C 315.329 287.414,315.505 286.970,315.380 286.768 C 315.255 286.565,315.343 286.400,315.576 286.400 C 315.809 286.400,316.000 286.076,316.000 285.680 C 316.000 285.284,316.225 284.718,316.500 284.421 C 316.837 284.058,316.846 283.969,316.528 284.148 C 315.878 284.513,315.635 283.962,316.022 283.000 C 316.295 282.321,316.348 282.306,316.372 282.900 C 316.387 283.285,316.610 283.600,316.867 283.600 C 317.123 283.600,317.215 283.482,317.070 283.337 C 316.925 283.192,316.975 282.871,317.180 282.624 C 317.385 282.377,317.641 281.689,317.749 281.094 C 317.856 280.500,318.046 279.849,318.170 279.649 C 318.294 279.448,318.119 279.178,317.780 279.048 C 317.313 278.869,317.262 278.631,317.569 278.059 C 317.790 277.644,317.849 277.182,317.698 277.031 C 317.548 276.881,317.723 276.872,318.088 277.012 C 318.614 277.214,318.801 276.950,318.994 275.733 C 319.458 272.796,319.488 272.400,319.245 272.400 C 319.110 272.400,319.043 236.175,319.095 191.900 C 319.155 141.347,319.050 111.621,318.813 111.995 C 318.512 112.469,318.448 112.417,318.500 111.739 C 318.542 111.177,318.759 110.963,319.138 111.108 C 319.587 111.281,319.624 111.172,319.308 110.607 C 319.086 110.211,318.999 109.524,319.115 109.081 C 319.257 108.541,319.175 108.368,318.868 108.558 C 318.570 108.742,318.493 108.623,318.647 108.221 C 318.790 107.849,318.668 107.598,318.343 107.594 C 317.923 107.589,317.936 107.498,318.400 107.194 C 319.058 106.762,318.192 105.834,317.519 106.250 C 317.344 106.358,317.200 106.237,317.200 105.981 C 317.200 105.724,317.463 105.615,317.785 105.739 C 318.274 105.926,318.261 105.736,317.711 104.582 C 317.348 103.822,316.905 103.200,316.726 103.200 C 316.547 103.200,316.400 102.933,316.400 102.608 C 316.400 102.282,315.950 101.902,315.400 101.764 C 314.850 101.626,314.400 101.252,314.400 100.933 C 314.400 100.614,314.220 100.464,314.000 100.600 C 313.780 100.736,313.600 100.499,313.600 100.073 C 313.600 99.219,312.680 98.254,312.263 98.670 C 312.118 98.815,312.000 98.752,312.000 98.531 C 312.000 97.870,310.091 97.148,309.858 97.721 C 309.751 97.984,309.649 97.885,309.632 97.500 C 309.614 97.115,309.465 96.821,309.300 96.847 C 309.135 96.873,308.910 96.860,308.800 96.817 C 307.598 96.348,305.304 96.233,294.712 96.110 L 282.424 95.967 282.312 84.583 C 282.250 78.322,282.322 73.200,282.472 73.200 C 282.622 73.200,282.565 72.615,282.346 71.900 C 282.127 71.185,281.906 70.420,281.855 70.200 C 281.803 69.980,281.539 69.395,281.267 68.900 C 280.995 68.405,280.873 68.000,280.996 68.000 C 281.711 68.000,279.754 65.473,278.774 65.131 C 278.128 64.906,277.600 64.459,277.600 64.137 C 277.600 63.816,277.433 63.656,277.229 63.782 C 277.024 63.909,276.799 63.604,276.728 63.106 C 276.647 62.531,276.344 62.220,275.900 62.256 C 275.515 62.286,275.200 62.039,275.200 61.707 C 275.200 61.211,275.091 61.193,274.591 61.608 C 274.075 62.035,274.019 61.997,274.223 61.357 C 274.455 60.631,274.441 60.629,273.871 61.324 C 273.494 61.784,273.181 61.893,273.015 61.624 C 272.871 61.391,272.943 61.200,273.176 61.200 C 273.409 61.200,273.600 60.990,273.600 60.733 C 273.600 60.477,273.482 60.385,273.337 60.530 C 273.192 60.675,272.797 60.570,272.460 60.297 C 272.031 59.949,271.932 59.942,272.130 60.272 C 272.286 60.532,272.243 60.850,272.034 60.979 C 271.826 61.108,271.540 61.027,271.400 60.800 C 271.260 60.573,270.949 60.508,270.711 60.655 C 270.449 60.817,270.392 60.737,270.566 60.455 C 270.725 60.198,271.023 60.091,271.228 60.217 C 271.432 60.344,271.600 60.268,271.600 60.048 C 271.600 59.829,271.285 59.612,270.900 59.566 C 268.753 59.309,94.781 59.246,94.940 59.503 M224.100 60.300 C 200.945 60.357,163.055 60.357,139.900 60.300 C 116.745 60.243,135.690 60.196,182.000 60.196 C 228.310 60.196,247.255 60.243,224.100 60.300 M97.345 73.800 C 97.140 74.332,106.684 74.400,181.757 74.400 C 237.919 74.400,266.400 74.265,266.400 74.000 C 266.400 73.780,266.591 73.600,266.824 73.600 C 267.057 73.600,267.136 73.780,267.000 74.000 C 266.588 74.667,267.239 75.371,267.688 74.743 C 267.978 74.336,268.016 74.384,267.838 74.933 C 267.707 75.336,267.600 80.241,267.600 85.833 L 267.600 96.000 198.976 96.000 C 160.404 96.000,130.447 96.152,130.567 96.346 C 130.685 96.537,130.227 96.628,129.549 96.549 C 128.592 96.438,128.367 96.538,128.543 96.997 C 128.676 97.341,128.447 97.761,127.994 98.003 C 127.366 98.340,127.262 98.303,127.451 97.812 C 127.579 97.478,127.873 97.321,128.104 97.464 C 128.355 97.619,128.404 97.530,128.226 97.242 C 128.017 96.905,127.779 96.885,127.428 97.177 C 127.152 97.406,126.808 97.475,126.663 97.330 C 126.518 97.185,126.400 97.287,126.400 97.557 C 126.400 97.827,126.220 97.936,126.000 97.800 C 125.780 97.664,125.600 97.823,125.600 98.153 C 125.600 98.483,125.392 98.881,125.138 99.038 C 124.852 99.215,124.785 99.148,124.962 98.862 C 125.119 98.608,125.057 98.400,124.824 98.400 C 124.591 98.400,124.400 98.664,124.400 98.987 C 124.400 99.311,124.168 99.486,123.885 99.377 C 123.101 99.076,121.056 101.406,121.297 102.326 C 121.447 102.902,121.327 103.054,120.824 102.922 C 120.289 102.782,120.168 102.998,120.235 103.972 C 120.282 104.646,120.166 105.103,119.978 104.986 C 119.789 104.870,119.720 104.465,119.824 104.087 C 119.928 103.709,119.663 104.114,119.236 104.986 C 118.808 105.858,118.546 106.713,118.653 106.886 C 118.760 107.059,118.668 107.200,118.448 107.200 C 117.854 107.200,117.892 102.331,117.738 198.913 L 117.595 289.226 107.097 289.066 C 101.324 288.978,96.420 288.852,96.200 288.786 C 95.647 288.621,95.848 75.592,96.401 75.039 C 96.621 74.819,96.800 74.316,96.800 73.920 C 96.800 73.524,96.974 73.200,97.187 73.200 C 97.401 73.200,97.471 73.470,97.345 73.800 M223.532 73.500 C 200.724 73.557,163.284 73.557,140.332 73.500 C 117.379 73.443,136.040 73.396,181.800 73.396 C 227.560 73.396,246.339 73.443,223.532 73.500 M95.100 234.468 C 95.043 263.581,94.997 239.880,94.997 181.800 C 94.997 123.720,95.043 99.901,95.100 128.868 C 95.157 157.835,95.157 205.355,95.100 234.468 M234.268 97.100 C 215.606 97.157,185.186 97.157,166.668 97.100 C 148.151 97.042,163.420 96.995,200.600 96.995 C 237.780 96.995,252.931 97.042,234.268 97.100 M298.924 97.099 C 296.022 97.167,291.162 97.167,288.124 97.099 C 285.086 97.031,287.460 96.975,293.400 96.975 C 299.340 96.975,301.826 97.031,298.924 97.099 M118.902 200.316 C 118.848 249.714,118.714 290.219,118.605 290.328 C 118.496 290.437,118.405 250.101,118.402 200.691 C 118.399 151.282,118.273 110.535,118.122 110.141 C 117.889 109.533,117.934 109.507,118.424 109.964 C 118.923 110.430,118.987 122.562,118.902 200.316 M218.704 111.198 C 286.639 111.194,303.813 111.294,304.068 111.696 C 304.440 112.282,304.523 271.215,304.152 272.181 C 303.928 272.765,302.052 272.825,284.852 272.792 C 267.844 272.760,265.806 272.822,265.856 273.378 C 265.886 273.720,265.667 274.000,265.368 274.000 C 265.050 274.000,264.920 273.752,265.055 273.400 C 265.182 273.070,265.086 272.800,264.843 272.800 C 264.599 272.800,264.400 272.956,264.400 273.148 C 264.400 273.339,263.860 273.432,263.200 273.355 C 262.540 273.278,262.000 273.403,262.000 273.631 C 262.000 273.860,262.168 273.944,262.372 273.817 C 262.577 273.691,262.875 273.798,263.034 274.055 C 263.208 274.337,263.151 274.417,262.889 274.255 C 262.651 274.108,262.342 274.170,262.204 274.393 C 261.874 274.928,261.200 274.916,261.200 274.376 C 261.200 274.143,261.408 274.081,261.662 274.238 C 261.955 274.419,262.015 274.347,261.826 274.042 C 261.597 273.672,261.385 273.680,260.903 274.081 C 260.559 274.366,260.260 274.529,260.239 274.441 C 260.160 274.116,258.400 274.868,258.400 275.227 C 258.400 275.432,258.175 275.555,257.900 275.500 C 257.625 275.445,257.438 275.604,257.484 275.853 C 257.531 276.102,257.261 276.282,256.884 276.253 C 256.508 276.224,256.243 276.419,256.295 276.686 C 256.348 276.953,256.164 277.084,255.887 276.978 C 255.611 276.872,254.488 277.714,253.392 278.850 C 252.297 279.985,251.625 280.788,251.900 280.633 C 252.175 280.479,252.400 280.531,252.400 280.749 C 252.400 280.968,252.031 281.263,251.579 281.407 C 250.917 281.617,250.850 281.779,251.236 282.243 C 251.619 282.705,251.595 282.773,251.115 282.589 C 250.545 282.370,248.976 285.246,248.600 287.200 C 248.526 287.585,248.285 288.552,248.065 289.349 C 247.830 290.199,247.645 297.944,247.617 308.063 C 247.590 317.558,247.475 325.479,247.361 325.664 C 247.246 325.849,221.683 326.000,190.553 326.000 C 147.871 326.000,134.023 326.114,134.238 326.462 C 134.416 326.750,134.348 326.815,134.055 326.634 C 133.798 326.475,133.679 326.196,133.791 326.014 C 133.904 325.833,133.726 325.581,133.398 325.454 C 132.869 325.252,132.800 312.815,132.800 218.493 C 132.800 133.672,132.697 111.645,132.300 111.199 C 131.875 110.722,131.904 110.718,132.500 111.168 C 133.117 111.635,133.205 111.586,133.246 110.749 C 133.280 110.068,133.345 109.998,133.476 110.502 C 133.650 111.168,137.959 111.203,218.704 111.198 M260.468 110.300 C 237.295 110.357,199.495 110.357,176.468 110.300 C 153.441 110.243,172.400 110.196,218.600 110.196 C 264.800 110.196,283.641 110.243,260.468 110.300 M131.900 271.268 C 131.843 300.600,131.797 276.720,131.797 218.200 C 131.797 159.680,131.843 135.680,131.900 164.868 C 131.957 194.055,131.957 241.935,131.900 271.268 M317.843 278.233 C 317.693 278.623,317.782 278.806,318.075 278.708 C 318.673 278.509,319.002 277.600,318.476 277.600 C 318.261 277.600,317.976 277.885,317.843 278.233 M267.683 287.300 C 267.351 287.699,270.056 287.777,281.034 287.685 C 288.605 287.622,294.800 287.720,294.800 287.904 C 294.800 288.087,294.080 288.941,293.200 289.800 C 292.320 290.659,291.600 291.666,291.600 292.037 C 291.600 292.408,291.226 293.136,290.770 293.656 C 290.313 294.175,290.061 294.363,290.210 294.073 C 290.394 293.714,290.244 293.587,289.740 293.673 C 288.648 293.860,284.800 297.613,284.800 298.491 C 284.800 298.907,284.633 299.144,284.429 299.018 C 284.225 298.892,283.943 299.151,283.802 299.594 C 283.661 300.037,283.368 300.400,283.149 300.400 C 282.931 300.400,282.888 300.625,283.053 300.900 C 283.246 301.222,283.105 301.198,282.657 300.835 C 281.863 300.190,278.000 303.514,278.000 304.841 C 278.000 305.210,277.626 305.936,277.170 306.456 C 276.713 306.975,276.461 307.163,276.610 306.873 C 276.794 306.514,276.644 306.387,276.140 306.473 C 275.048 306.660,271.200 310.413,271.200 311.291 C 271.200 311.707,271.033 311.944,270.829 311.818 C 270.625 311.692,270.343 311.951,270.202 312.394 C 270.061 312.837,269.768 313.200,269.549 313.200 C 269.331 313.200,269.288 313.425,269.453 313.700 C 269.646 314.022,269.505 313.998,269.057 313.635 C 268.274 312.999,264.400 316.305,264.400 317.609 C 264.400 317.960,264.117 318.596,263.770 319.024 C 263.424 319.451,263.255 319.575,263.394 319.300 C 263.533 319.025,263.505 318.575,263.332 318.300 C 263.123 317.968,262.929 318.203,262.756 319.000 C 262.612 319.660,262.473 314.204,262.447 306.876 C 262.410 296.361,262.295 293.606,261.900 293.806 C 261.625 293.945,261.689 293.820,262.042 293.528 C 262.645 293.029,263.210 291.805,263.175 291.074 C 263.166 290.894,263.618 290.386,264.179 289.945 C 264.741 289.503,265.200 288.891,265.200 288.584 C 265.200 288.276,265.436 288.116,265.725 288.227 C 266.014 288.338,266.582 288.062,266.987 287.614 C 267.780 286.738,268.371 286.471,267.683 287.300 M118.913 315.095 C 118.968 322.163,118.852 326.435,118.600 326.671 C 118.287 326.964,118.171 313.860,118.396 303.633 C 118.398 303.542,118.496 303.562,118.613 303.679 C 118.730 303.796,118.865 308.933,118.913 315.095 " stroke="none" fill="#848484" fill-rule="evenodd"></path><path id="path1" d="M270.533 60.218 C 270.533 60.538,270.622 60.712,270.730 60.603 C 270.838 60.495,271.152 60.594,271.428 60.823 C 271.775 61.111,272.008 61.110,272.188 60.819 C 272.331 60.589,272.347 60.377,272.224 60.350 C 272.101 60.323,271.865 60.275,271.700 60.244 C 271.535 60.213,271.205 60.063,270.967 59.911 C 270.727 59.759,270.533 59.896,270.533 60.218 M139.900 60.300 C 163.055 60.357,200.945 60.357,224.100 60.300 C 247.255 60.243,228.310 60.196,182.000 60.196 C 135.690 60.196,116.745 60.243,139.900 60.300 M276.800 63.349 C 276.800 63.733,276.980 63.936,277.200 63.800 C 277.420 63.664,277.600 63.814,277.600 64.134 C 277.600 64.453,277.896 64.828,278.257 64.967 C 279.343 65.383,279.259 65.006,277.996 63.796 C 277.029 62.869,276.800 62.784,276.800 63.349 M85.240 64.158 C 84.578 64.862,84.470 65.196,84.832 65.420 C 85.148 65.615,85.221 65.558,85.036 65.259 C 84.878 65.002,85.015 64.692,85.344 64.566 C 85.671 64.441,86.036 64.082,86.157 63.769 C 86.461 62.976,86.277 63.054,85.240 64.158 M140.332 73.500 C 163.284 73.557,200.724 73.557,223.532 73.500 C 246.339 73.443,227.560 73.396,181.800 73.396 C 136.040 73.396,117.379 73.443,140.332 73.500 M282.302 80.700 C 282.496 94.870,282.631 96.181,282.716 84.700 C 282.762 78.375,282.665 73.200,282.500 73.200 C 282.335 73.199,282.246 76.574,282.302 80.700 M81.348 74.500 C 81.481 74.995,81.592 123.415,81.595 182.100 C 81.598 240.785,81.735 288.800,81.900 288.800 C 82.065 288.800,82.200 240.650,82.200 181.800 C 82.200 122.950,82.065 74.800,81.900 74.800 C 81.735 74.800,81.600 74.609,81.600 74.376 C 81.600 74.143,81.808 74.081,82.062 74.238 C 82.348 74.415,82.415 74.348,82.238 74.062 C 81.733 73.245,81.096 73.558,81.348 74.500 M94.997 181.800 C 94.997 239.880,95.043 263.581,95.100 234.468 C 95.157 205.355,95.157 157.835,95.100 128.868 C 95.043 99.901,94.997 123.720,94.997 181.800 M127.584 97.630 C 127.176 98.392,127.209 98.423,127.981 98.010 C 128.444 97.763,128.717 97.389,128.588 97.180 C 128.246 96.628,128.080 96.703,127.584 97.630 M166.668 97.100 C 185.186 97.157,215.606 97.157,234.268 97.100 C 252.931 97.042,237.780 96.995,200.600 96.995 C 163.420 96.995,148.151 97.042,166.668 97.100 M288.124 97.099 C 291.162 97.167,296.022 97.167,298.924 97.099 C 301.826 97.031,299.340 96.975,293.400 96.975 C 287.460 96.975,285.086 97.031,288.124 97.099 M313.600 100.224 C 313.600 100.567,313.780 100.736,314.000 100.600 C 314.220 100.464,314.400 100.612,314.400 100.930 C 314.400 101.247,314.783 101.607,315.252 101.729 C 316.016 101.929,315.988 101.831,314.977 100.776 C 313.674 99.416,313.600 99.387,313.600 100.224 M118.122 110.141 C 118.273 110.535,118.399 151.282,118.402 200.691 C 118.405 250.101,118.496 290.437,118.605 290.328 C 119.170 289.764,118.989 110.493,118.424 109.964 C 117.934 109.507,117.889 109.533,118.122 110.141 M176.468 110.300 C 199.495 110.357,237.295 110.357,260.468 110.300 C 283.641 110.243,264.800 110.196,218.600 110.196 C 172.400 110.196,153.441 110.243,176.468 110.300 M318.500 111.739 C 318.448 112.417,318.512 112.469,318.813 111.995 C 319.050 111.621,319.155 141.347,319.095 191.900 C 319.043 236.175,319.135 272.400,319.300 272.400 C 319.880 272.400,319.662 111.309,319.082 111.087 C 318.767 110.966,318.538 111.222,318.500 111.739 M131.797 218.200 C 131.797 276.720,131.843 300.600,131.900 271.268 C 131.957 241.935,131.957 194.055,131.900 164.868 C 131.843 135.680,131.797 159.680,131.797 218.200 M266.855 272.933 C 266.521 273.336,266.554 273.467,266.989 273.467 C 267.306 273.467,267.473 273.318,267.361 273.137 C 267.249 272.956,275.492 272.759,285.679 272.700 L 304.200 272.592 285.749 272.496 C 270.772 272.418,267.215 272.500,266.855 272.933 M262.633 273.500 C 262.468 273.665,262.138 273.800,261.900 273.800 C 261.662 273.800,261.392 274.025,261.300 274.300 C 261.101 274.897,261.845 274.974,262.204 274.393 C 262.342 274.170,262.593 274.072,262.761 274.176 C 262.929 274.280,263.067 274.103,263.067 273.782 C 263.067 273.112,263.039 273.094,262.633 273.500 M317.718 277.338 C 317.709 277.592,317.634 278.048,317.551 278.350 C 317.468 278.653,317.670 278.981,318.000 279.080 C 318.472 279.222,318.487 279.181,318.070 278.889 C 317.638 278.584,317.654 278.403,318.160 277.897 C 318.648 277.409,318.669 277.235,318.256 277.077 C 317.969 276.967,317.726 277.084,317.718 277.338 M315.905 283.121 C 315.778 283.604,315.826 284.092,316.010 284.206 C 316.519 284.521,316.734 283.894,316.417 283.021 C 316.148 282.281,316.123 282.286,315.905 283.121 M312.867 289.242 C 312.578 289.705,312.519 289.974,312.736 289.839 C 312.954 289.705,313.223 289.821,313.334 290.098 C 313.446 290.374,313.551 290.105,313.568 289.500 C 313.606 288.179,313.545 288.156,312.867 289.242 M290.176 292.826 C 289.318 293.720,289.208 293.972,289.766 293.758 C 290.350 293.534,290.461 293.599,290.235 294.032 C 290.072 294.344,290.313 294.175,290.770 293.656 C 292.387 291.817,291.854 291.073,290.176 292.826 M261.762 293.662 C 261.586 293.946,261.652 294.015,261.933 293.842 C 262.270 293.633,262.418 297.028,262.500 306.880 L 262.611 320.200 262.706 306.700 C 262.794 294.081,262.658 292.211,261.762 293.662 M308.294 295.256 C 307.472 296.073,306.800 297.063,306.800 297.457 C 306.800 297.968,307.429 297.551,309.000 296.000 C 311.570 293.462,311.363 293.771,310.494 293.771 C 310.105 293.771,309.115 294.440,308.294 295.256 M283.397 299.203 C 282.446 300.196,282.338 300.492,282.781 300.903 C 283.209 301.299,283.260 301.299,283.035 300.900 C 282.880 300.625,282.931 300.400,283.149 300.400 C 283.368 300.400,283.661 300.037,283.802 299.594 C 283.943 299.151,284.225 298.892,284.429 299.018 C 284.633 299.144,284.800 298.967,284.800 298.624 C 284.800 297.785,284.727 297.815,283.397 299.203 M301.765 301.500 C 301.920 301.775,301.869 302.000,301.651 302.000 C 301.432 302.000,301.139 302.363,300.998 302.806 C 300.857 303.249,300.575 303.508,300.371 303.382 C 300.167 303.256,300.000 303.475,300.000 303.869 C 300.000 304.438,300.263 304.322,301.286 303.298 C 302.358 302.226,302.482 301.928,302.027 301.506 C 301.602 301.111,301.545 301.110,301.765 301.500 M95.255 303.867 C 95.608 304.292,97.940 304.381,106.749 304.307 L 117.800 304.213 106.680 304.100 C 100.565 304.038,95.652 303.840,95.763 303.660 C 95.874 303.480,95.706 303.333,95.389 303.333 C 94.954 303.333,94.921 303.464,95.255 303.867 M118.396 303.633 C 118.171 313.860,118.287 326.964,118.600 326.671 C 119.012 326.286,119.024 304.091,118.613 303.679 C 118.496 303.562,118.398 303.542,118.396 303.633 M276.576 305.626 C 275.718 306.520,275.608 306.772,276.166 306.558 C 276.750 306.334,276.861 306.399,276.635 306.832 C 276.472 307.144,276.713 306.975,277.170 306.456 C 278.787 304.617,278.254 303.873,276.576 305.626 M293.772 308.987 C 292.743 310.557,293.297 310.960,294.606 309.594 C 295.468 308.694,295.586 308.430,295.034 308.642 C 294.499 308.847,294.356 308.795,294.558 308.468 C 295.130 307.543,294.404 308.022,293.772 308.987 M269.797 312.003 C 268.846 312.996,268.738 313.292,269.181 313.703 C 269.609 314.099,269.660 314.099,269.435 313.700 C 269.280 313.425,269.331 313.200,269.549 313.200 C 269.768 313.200,270.061 312.837,270.202 312.394 C 270.343 311.951,270.625 311.692,270.829 311.818 C 271.033 311.944,271.200 311.767,271.200 311.424 C 271.200 310.585,271.127 310.615,269.797 312.003 M288.165 314.300 C 288.320 314.575,288.269 314.800,288.051 314.800 C 287.832 314.800,287.539 315.163,287.398 315.606 C 287.257 316.049,286.975 316.308,286.771 316.182 C 286.567 316.056,286.400 316.275,286.400 316.669 C 286.400 317.238,286.663 317.122,287.686 316.098 C 288.758 315.026,288.882 314.728,288.427 314.306 C 288.002 313.911,287.945 313.910,288.165 314.300 M263.743 317.693 C 263.132 318.681,263.239 319.835,263.863 318.982 C 264.376 318.279,264.595 317.200,264.224 317.200 C 264.127 317.200,263.910 317.422,263.743 317.693 M280.172 321.787 C 279.143 323.357,279.697 323.760,281.006 322.394 C 281.868 321.494,281.986 321.230,281.434 321.442 C 280.899 321.647,280.756 321.595,280.958 321.268 C 281.530 320.343,280.804 320.822,280.172 321.787 M274.565 327.100 C 274.720 327.375,274.669 327.600,274.451 327.600 C 274.232 327.600,273.939 327.963,273.798 328.406 C 273.657 328.849,273.375 329.108,273.171 328.982 C 272.967 328.856,272.800 329.075,272.800 329.469 C 272.800 330.038,273.063 329.922,274.086 328.898 C 275.158 327.826,275.282 327.528,274.827 327.106 C 274.402 326.711,274.345 326.710,274.565 327.100 M126.203 338.795 C 126.058 339.030,126.237 339.084,126.645 338.927 C 127.147 338.735,127.244 338.806,127.004 339.194 C 126.786 339.546,126.831 339.628,127.138 339.438 C 127.392 339.281,127.600 338.983,127.600 338.776 C 127.600 338.277,126.514 338.292,126.203 338.795 M133.655 340.667 C 134.020 341.106,143.936 341.200,190.200 341.200 C 236.464 341.200,246.380 341.106,246.745 340.667 C 247.079 340.264,247.046 340.133,246.611 340.133 C 246.294 340.133,246.128 340.283,246.241 340.467 C 246.355 340.650,221.136 340.800,190.200 340.800 C 159.264 340.800,134.045 340.650,134.159 340.467 C 134.272 340.283,134.106 340.133,133.789 340.133 C 133.354 340.133,133.321 340.264,133.655 340.667 " stroke="none" fill="#888484" fill-rule="evenodd"></path><path id="path2" d="M270.533 60.218 C 270.533 60.538,270.622 60.712,270.730 60.603 C 270.838 60.495,271.152 60.594,271.428 60.823 C 271.775 61.111,272.008 61.110,272.188 60.819 C 272.331 60.589,272.347 60.377,272.224 60.350 C 272.101 60.323,271.865 60.275,271.700 60.244 C 271.535 60.213,271.205 60.063,270.967 59.911 C 270.727 59.759,270.533 59.896,270.533 60.218 M139.900 60.300 C 163.055 60.357,200.945 60.357,224.100 60.300 C 247.255 60.243,228.310 60.196,182.000 60.196 C 135.690 60.196,116.745 60.243,139.900 60.300 M276.800 63.349 C 276.800 63.733,276.980 63.936,277.200 63.800 C 277.420 63.664,277.600 63.814,277.600 64.134 C 277.600 64.453,277.896 64.828,278.257 64.967 C 279.343 65.383,279.259 65.006,277.996 63.796 C 277.029 62.869,276.800 62.784,276.800 63.349 M85.240 64.158 C 84.578 64.862,84.470 65.196,84.832 65.420 C 85.148 65.615,85.221 65.558,85.036 65.259 C 84.878 65.002,85.015 64.692,85.344 64.566 C 85.671 64.441,86.036 64.082,86.157 63.769 C 86.461 62.976,86.277 63.054,85.240 64.158 M140.332 73.500 C 163.284 73.557,200.724 73.557,223.532 73.500 C 246.339 73.443,227.560 73.396,181.800 73.396 C 136.040 73.396,117.379 73.443,140.332 73.500 M282.302 80.700 C 282.496 94.870,282.631 96.181,282.716 84.700 C 282.762 78.375,282.665 73.200,282.500 73.200 C 282.335 73.199,282.246 76.574,282.302 80.700 M81.348 74.500 C 81.481 74.995,81.592 123.415,81.595 182.100 C 81.598 240.785,81.735 288.800,81.900 288.800 C 82.065 288.800,82.200 240.650,82.200 181.800 C 82.200 122.950,82.065 74.800,81.900 74.800 C 81.735 74.800,81.600 74.609,81.600 74.376 C 81.600 74.143,81.808 74.081,82.062 74.238 C 82.348 74.415,82.415 74.348,82.238 74.062 C 81.733 73.245,81.096 73.558,81.348 74.500 M94.997 181.800 C 94.997 239.880,95.043 263.581,95.100 234.468 C 95.157 205.355,95.157 157.835,95.100 128.868 C 95.043 99.901,94.997 123.720,94.997 181.800 M127.584 97.630 C 127.176 98.392,127.209 98.423,127.981 98.010 C 128.444 97.763,128.717 97.389,128.588 97.180 C 128.246 96.628,128.080 96.703,127.584 97.630 M166.668 97.100 C 185.186 97.157,215.606 97.157,234.268 97.100 C 252.931 97.042,237.780 96.995,200.600 96.995 C 163.420 96.995,148.151 97.042,166.668 97.100 M288.124 97.099 C 291.162 97.167,296.022 97.167,298.924 97.099 C 301.826 97.031,299.340 96.975,293.400 96.975 C 287.460 96.975,285.086 97.031,288.124 97.099 M313.600 100.224 C 313.600 100.567,313.780 100.736,314.000 100.600 C 314.220 100.464,314.400 100.612,314.400 100.930 C 314.400 101.247,314.783 101.607,315.252 101.729 C 316.016 101.929,315.988 101.831,314.977 100.776 C 313.674 99.416,313.600 99.387,313.600 100.224 M118.122 110.141 C 118.273 110.535,118.399 151.282,118.402 200.691 C 118.405 250.101,118.496 290.437,118.605 290.328 C 119.170 289.764,118.989 110.493,118.424 109.964 C 117.934 109.507,117.889 109.533,118.122 110.141 M176.468 110.300 C 199.495 110.357,237.295 110.357,260.468 110.300 C 283.641 110.243,264.800 110.196,218.600 110.196 C 172.400 110.196,153.441 110.243,176.468 110.300 M318.500 111.739 C 318.448 112.417,318.512 112.469,318.813 111.995 C 319.050 111.621,319.155 141.347,319.095 191.900 C 319.043 236.175,319.135 272.400,319.300 272.400 C 319.880 272.400,319.662 111.309,319.082 111.087 C 318.767 110.966,318.538 111.222,318.500 111.739 M131.797 218.200 C 131.797 276.720,131.843 300.600,131.900 271.268 C 131.957 241.935,131.957 194.055,131.900 164.868 C 131.843 135.680,131.797 159.680,131.797 218.200 M266.855 272.933 C 266.521 273.336,266.554 273.467,266.989 273.467 C 267.306 273.467,267.473 273.318,267.361 273.137 C 267.249 272.956,275.492 272.759,285.679 272.700 L 304.200 272.592 285.749 272.496 C 270.772 272.418,267.215 272.500,266.855 272.933 M262.633 273.500 C 262.468 273.665,262.138 273.800,261.900 273.800 C 261.662 273.800,261.392 274.025,261.300 274.300 C 261.101 274.897,261.845 274.974,262.204 274.393 C 262.342 274.170,262.593 274.072,262.761 274.176 C 262.929 274.280,263.067 274.103,263.067 273.782 C 263.067 273.112,263.039 273.094,262.633 273.500 M317.718 277.338 C 317.709 277.592,317.634 278.048,317.551 278.350 C 317.468 278.653,317.670 278.981,318.000 279.080 C 318.472 279.222,318.487 279.181,318.070 278.889 C 317.638 278.584,317.654 278.403,318.160 277.897 C 318.648 277.409,318.669 277.235,318.256 277.077 C 317.969 276.967,317.726 277.084,317.718 277.338 M315.905 283.121 C 315.778 283.604,315.826 284.092,316.010 284.206 C 316.519 284.521,316.734 283.894,316.417 283.021 C 316.148 282.281,316.123 282.286,315.905 283.121 M312.867 289.242 C 312.578 289.705,312.519 289.974,312.736 289.839 C 312.954 289.705,313.223 289.821,313.334 290.098 C 313.446 290.374,313.551 290.105,313.568 289.500 C 313.606 288.179,313.545 288.156,312.867 289.242 M290.176 292.826 C 289.318 293.720,289.208 293.972,289.766 293.758 C 290.350 293.534,290.461 293.599,290.235 294.032 C 290.072 294.344,290.313 294.175,290.770 293.656 C 292.387 291.817,291.854 291.073,290.176 292.826 M261.762 293.662 C 261.586 293.946,261.652 294.015,261.933 293.842 C 262.270 293.633,262.418 297.028,262.500 306.880 L 262.611 320.200 262.706 306.700 C 262.794 294.081,262.658 292.211,261.762 293.662 M308.294 295.256 C 307.472 296.073,306.800 297.063,306.800 297.457 C 306.800 297.968,307.429 297.551,309.000 296.000 C 311.570 293.462,311.363 293.771,310.494 293.771 C 310.105 293.771,309.115 294.440,308.294 295.256 M283.397 299.203 C 282.446 300.196,282.338 300.492,282.781 300.903 C 283.209 301.299,283.260 301.299,283.035 300.900 C 282.880 300.625,282.931 300.400,283.149 300.400 C 283.368 300.400,283.661 300.037,283.802 299.594 C 283.943 299.151,284.225 298.892,284.429 299.018 C 284.633 299.144,284.800 298.967,284.800 298.624 C 284.800 297.785,284.727 297.815,283.397 299.203 M301.765 301.500 C 301.920 301.775,301.869 302.000,301.651 302.000 C 301.432 302.000,301.139 302.363,300.998 302.806 C 300.857 303.249,300.575 303.508,300.371 303.382 C 300.167 303.256,300.000 303.475,300.000 303.869 C 300.000 304.438,300.263 304.322,301.286 303.298 C 302.358 302.226,302.482 301.928,302.027 301.506 C 301.602 301.111,301.545 301.110,301.765 301.500 M95.255 303.867 C 95.608 304.292,97.940 304.381,106.749 304.307 L 117.800 304.213 106.680 304.100 C 100.565 304.038,95.652 303.840,95.763 303.660 C 95.874 303.480,95.706 303.333,95.389 303.333 C 94.954 303.333,94.921 303.464,95.255 303.867 M118.396 303.633 C 118.171 313.860,118.287 326.964,118.600 326.671 C 119.012 326.286,119.024 304.091,118.613 303.679 C 118.496 303.562,118.398 303.542,118.396 303.633 M276.576 305.626 C 275.718 306.520,275.608 306.772,276.166 306.558 C 276.750 306.334,276.861 306.399,276.635 306.832 C 276.472 307.144,276.713 306.975,277.170 306.456 C 278.787 304.617,278.254 303.873,276.576 305.626 M293.772 308.987 C 292.743 310.557,293.297 310.960,294.606 309.594 C 295.468 308.694,295.586 308.430,295.034 308.642 C 294.499 308.847,294.356 308.795,294.558 308.468 C 295.130 307.543,294.404 308.022,293.772 308.987 M269.797 312.003 C 268.846 312.996,268.738 313.292,269.181 313.703 C 269.609 314.099,269.660 314.099,269.435 313.700 C 269.280 313.425,269.331 313.200,269.549 313.200 C 269.768 313.200,270.061 312.837,270.202 312.394 C 270.343 311.951,270.625 311.692,270.829 311.818 C 271.033 311.944,271.200 311.767,271.200 311.424 C 271.200 310.585,271.127 310.615,269.797 312.003 M288.165 314.300 C 288.320 314.575,288.269 314.800,288.051 314.800 C 287.832 314.800,287.539 315.163,287.398 315.606 C 287.257 316.049,286.975 316.308,286.771 316.182 C 286.567 316.056,286.400 316.275,286.400 316.669 C 286.400 317.238,286.663 317.122,287.686 316.098 C 288.758 315.026,288.882 314.728,288.427 314.306 C 288.002 313.911,287.945 313.910,288.165 314.300 M263.743 317.693 C 263.132 318.681,263.239 319.835,263.863 318.982 C 264.376 318.279,264.595 317.200,264.224 317.200 C 264.127 317.200,263.910 317.422,263.743 317.693 M280.172 321.787 C 279.143 323.357,279.697 323.760,281.006 322.394 C 281.868 321.494,281.986 321.230,281.434 321.442 C 280.899 321.647,280.756 321.595,280.958 321.268 C 281.530 320.343,280.804 320.822,280.172 321.787 M274.565 327.100 C 274.720 327.375,274.669 327.600,274.451 327.600 C 274.232 327.600,273.939 327.963,273.798 328.406 C 273.657 328.849,273.375 329.108,273.171 328.982 C 272.967 328.856,272.800 329.075,272.800 329.469 C 272.800 330.038,273.063 329.922,274.086 328.898 C 275.158 327.826,275.282 327.528,274.827 327.106 C 274.402 326.711,274.345 326.710,274.565 327.100 M126.203 338.795 C 126.058 339.030,126.237 339.084,126.645 338.927 C 127.147 338.735,127.244 338.806,127.004 339.194 C 126.786 339.546,126.831 339.628,127.138 339.438 C 127.392 339.281,127.600 338.983,127.600 338.776 C 127.600 338.277,126.514 338.292,126.203 338.795 M133.655 340.667 C 134.020 341.106,143.936 341.200,190.200 341.200 C 236.464 341.200,246.380 341.106,246.745 340.667 C 247.079 340.264,247.046 340.133,246.611 340.133 C 246.294 340.133,246.128 340.283,246.241 340.467 C 246.355 340.650,221.136 340.800,190.200 340.800 C 159.264 340.800,134.045 340.650,134.159 340.467 C 134.272 340.283,134.106 340.133,133.789 340.133 C 133.354 340.133,133.321 340.264,133.655 340.667 " stroke="none" fill="#888484" fill-rule="evenodd"></path><path id="path3" d="M270.533 60.218 C 270.533 60.538,270.622 60.712,270.730 60.603 C 270.838 60.495,271.152 60.594,271.428 60.823 C 271.775 61.111,272.008 61.110,272.188 60.819 C 272.331 60.589,272.347 60.377,272.224 60.350 C 272.101 60.323,271.865 60.275,271.700 60.244 C 271.535 60.213,271.205 60.063,270.967 59.911 C 270.727 59.759,270.533 59.896,270.533 60.218 M139.900 60.300 C 163.055 60.357,200.945 60.357,224.100 60.300 C 247.255 60.243,228.310 60.196,182.000 60.196 C 135.690 60.196,116.745 60.243,139.900 60.300 M276.800 63.349 C 276.800 63.733,276.980 63.936,277.200 63.800 C 277.420 63.664,277.600 63.814,277.600 64.134 C 277.600 64.453,277.896 64.828,278.257 64.967 C 279.343 65.383,279.259 65.006,277.996 63.796 C 277.029 62.869,276.800 62.784,276.800 63.349 M85.240 64.158 C 84.578 64.862,84.470 65.196,84.832 65.420 C 85.148 65.615,85.221 65.558,85.036 65.259 C 84.878 65.002,85.015 64.692,85.344 64.566 C 85.671 64.441,86.036 64.082,86.157 63.769 C 86.461 62.976,86.277 63.054,85.240 64.158 M140.332 73.500 C 163.284 73.557,200.724 73.557,223.532 73.500 C 246.339 73.443,227.560 73.396,181.800 73.396 C 136.040 73.396,117.379 73.443,140.332 73.500 M282.302 80.700 C 282.496 94.870,282.631 96.181,282.716 84.700 C 282.762 78.375,282.665 73.200,282.500 73.200 C 282.335 73.199,282.246 76.574,282.302 80.700 M81.348 74.500 C 81.481 74.995,81.592 123.415,81.595 182.100 C 81.598 240.785,81.735 288.800,81.900 288.800 C 82.065 288.800,82.200 240.650,82.200 181.800 C 82.200 122.950,82.065 74.800,81.900 74.800 C 81.735 74.800,81.600 74.609,81.600 74.376 C 81.600 74.143,81.808 74.081,82.062 74.238 C 82.348 74.415,82.415 74.348,82.238 74.062 C 81.733 73.245,81.096 73.558,81.348 74.500 M94.997 181.800 C 94.997 239.880,95.043 263.581,95.100 234.468 C 95.157 205.355,95.157 157.835,95.100 128.868 C 95.043 99.901,94.997 123.720,94.997 181.800 M127.584 97.630 C 127.176 98.392,127.209 98.423,127.981 98.010 C 128.444 97.763,128.717 97.389,128.588 97.180 C 128.246 96.628,128.080 96.703,127.584 97.630 M166.668 97.100 C 185.186 97.157,215.606 97.157,234.268 97.100 C 252.931 97.042,237.780 96.995,200.600 96.995 C 163.420 96.995,148.151 97.042,166.668 97.100 M288.124 97.099 C 291.162 97.167,296.022 97.167,298.924 97.099 C 301.826 97.031,299.340 96.975,293.400 96.975 C 287.460 96.975,285.086 97.031,288.124 97.099 M313.600 100.224 C 313.600 100.567,313.780 100.736,314.000 100.600 C 314.220 100.464,314.400 100.612,314.400 100.930 C 314.400 101.247,314.783 101.607,315.252 101.729 C 316.016 101.929,315.988 101.831,314.977 100.776 C 313.674 99.416,313.600 99.387,313.600 100.224 M118.122 110.141 C 118.273 110.535,118.399 151.282,118.402 200.691 C 118.405 250.101,118.496 290.437,118.605 290.328 C 119.170 289.764,118.989 110.493,118.424 109.964 C 117.934 109.507,117.889 109.533,118.122 110.141 M176.468 110.300 C 199.495 110.357,237.295 110.357,260.468 110.300 C 283.641 110.243,264.800 110.196,218.600 110.196 C 172.400 110.196,153.441 110.243,176.468 110.300 M318.500 111.739 C 318.448 112.417,318.512 112.469,318.813 111.995 C 319.050 111.621,319.155 141.347,319.095 191.900 C 319.043 236.175,319.135 272.400,319.300 272.400 C 319.880 272.400,319.662 111.309,319.082 111.087 C 318.767 110.966,318.538 111.222,318.500 111.739 M131.797 218.200 C 131.797 276.720,131.843 300.600,131.900 271.268 C 131.957 241.935,131.957 194.055,131.900 164.868 C 131.843 135.680,131.797 159.680,131.797 218.200 M266.855 272.933 C 266.521 273.336,266.554 273.467,266.989 273.467 C 267.306 273.467,267.473 273.318,267.361 273.137 C 267.249 272.956,275.492 272.759,285.679 272.700 L 304.200 272.592 285.749 272.496 C 270.772 272.418,267.215 272.500,266.855 272.933 M262.633 273.500 C 262.468 273.665,262.138 273.800,261.900 273.800 C 261.662 273.800,261.392 274.025,261.300 274.300 C 261.101 274.897,261.845 274.974,262.204 274.393 C 262.342 274.170,262.593 274.072,262.761 274.176 C 262.929 274.280,263.067 274.103,263.067 273.782 C 263.067 273.112,263.039 273.094,262.633 273.500 M317.718 277.338 C 317.709 277.592,317.634 278.048,317.551 278.350 C 317.468 278.653,317.670 278.981,318.000 279.080 C 318.472 279.222,318.487 279.181,318.070 278.889 C 317.638 278.584,317.654 278.403,318.160 277.897 C 318.648 277.409,318.669 277.235,318.256 277.077 C 317.969 276.967,317.726 277.084,317.718 277.338 M315.905 283.121 C 315.778 283.604,315.826 284.092,316.010 284.206 C 316.519 284.521,316.734 283.894,316.417 283.021 C 316.148 282.281,316.123 282.286,315.905 283.121 M312.867 289.242 C 312.578 289.705,312.519 289.974,312.736 289.839 C 312.954 289.705,313.223 289.821,313.334 290.098 C 313.446 290.374,313.551 290.105,313.568 289.500 C 313.606 288.179,313.545 288.156,312.867 289.242 M290.176 292.826 C 289.318 293.720,289.208 293.972,289.766 293.758 C 290.350 293.534,290.461 293.599,290.235 294.032 C 290.072 294.344,290.313 294.175,290.770 293.656 C 292.387 291.817,291.854 291.073,290.176 292.826 M261.762 293.662 C 261.586 293.946,261.652 294.015,261.933 293.842 C 262.270 293.633,262.418 297.028,262.500 306.880 L 262.611 320.200 262.706 306.700 C 262.794 294.081,262.658 292.211,261.762 293.662 M308.294 295.256 C 307.472 296.073,306.800 297.063,306.800 297.457 C 306.800 297.968,307.429 297.551,309.000 296.000 C 311.570 293.462,311.363 293.771,310.494 293.771 C 310.105 293.771,309.115 294.440,308.294 295.256 M283.397 299.203 C 282.446 300.196,282.338 300.492,282.781 300.903 C 283.209 301.299,283.260 301.299,283.035 300.900 C 282.880 300.625,282.931 300.400,283.149 300.400 C 283.368 300.400,283.661 300.037,283.802 299.594 C 283.943 299.151,284.225 298.892,284.429 299.018 C 284.633 299.144,284.800 298.967,284.800 298.624 C 284.800 297.785,284.727 297.815,283.397 299.203 M301.765 301.500 C 301.920 301.775,301.869 302.000,301.651 302.000 C 301.432 302.000,301.139 302.363,300.998 302.806 C 300.857 303.249,300.575 303.508,300.371 303.382 C 300.167 303.256,300.000 303.475,300.000 303.869 C 300.000 304.438,300.263 304.322,301.286 303.298 C 302.358 302.226,302.482 301.928,302.027 301.506 C 301.602 301.111,301.545 301.110,301.765 301.500 M95.255 303.867 C 95.608 304.292,97.940 304.381,106.749 304.307 L 117.800 304.213 106.680 304.100 C 100.565 304.038,95.652 303.840,95.763 303.660 C 95.874 303.480,95.706 303.333,95.389 303.333 C 94.954 303.333,94.921 303.464,95.255 303.867 M118.396 303.633 C 118.171 313.860,118.287 326.964,118.600 326.671 C 119.012 326.286,119.024 304.091,118.613 303.679 C 118.496 303.562,118.398 303.542,118.396 303.633 M276.576 305.626 C 275.718 306.520,275.608 306.772,276.166 306.558 C 276.750 306.334,276.861 306.399,276.635 306.832 C 276.472 307.144,276.713 306.975,277.170 306.456 C 278.787 304.617,278.254 303.873,276.576 305.626 M293.772 308.987 C 292.743 310.557,293.297 310.960,294.606 309.594 C 295.468 308.694,295.586 308.430,295.034 308.642 C 294.499 308.847,294.356 308.795,294.558 308.468 C 295.130 307.543,294.404 308.022,293.772 308.987 M269.797 312.003 C 268.846 312.996,268.738 313.292,269.181 313.703 C 269.609 314.099,269.660 314.099,269.435 313.700 C 269.280 313.425,269.331 313.200,269.549 313.200 C 269.768 313.200,270.061 312.837,270.202 312.394 C 270.343 311.951,270.625 311.692,270.829 311.818 C 271.033 311.944,271.200 311.767,271.200 311.424 C 271.200 310.585,271.127 310.615,269.797 312.003 M288.165 314.300 C 288.320 314.575,288.269 314.800,288.051 314.800 C 287.832 314.800,287.539 315.163,287.398 315.606 C 287.257 316.049,286.975 316.308,286.771 316.182 C 286.567 316.056,286.400 316.275,286.400 316.669 C 286.400 317.238,286.663 317.122,287.686 316.098 C 288.758 315.026,288.882 314.728,288.427 314.306 C 288.002 313.911,287.945 313.910,288.165 314.300 M263.743 317.693 C 263.132 318.681,263.239 319.835,263.863 318.982 C 264.376 318.279,264.595 317.200,264.224 317.200 C 264.127 317.200,263.910 317.422,263.743 317.693 M280.172 321.787 C 279.143 323.357,279.697 323.760,281.006 322.394 C 281.868 321.494,281.986 321.230,281.434 321.442 C 280.899 321.647,280.756 321.595,280.958 321.268 C 281.530 320.343,280.804 320.822,280.172 321.787 M274.565 327.100 C 274.720 327.375,274.669 327.600,274.451 327.600 C 274.232 327.600,273.939 327.963,273.798 328.406 C 273.657 328.849,273.375 329.108,273.171 328.982 C 272.967 328.856,272.800 329.075,272.800 329.469 C 272.800 330.038,273.063 329.922,274.086 328.898 C 275.158 327.826,275.282 327.528,274.827 327.106 C 274.402 326.711,274.345 326.710,274.565 327.100 M126.203 338.795 C 126.058 339.030,126.237 339.084,126.645 338.927 C 127.147 338.735,127.244 338.806,127.004 339.194 C 126.786 339.546,126.831 339.628,127.138 339.438 C 127.392 339.281,127.600 338.983,127.600 338.776 C 127.600 338.277,126.514 338.292,126.203 338.795 M133.655 340.667 C 134.020 341.106,143.936 341.200,190.200 341.200 C 236.464 341.200,246.380 341.106,246.745 340.667 C 247.079 340.264,247.046 340.133,246.611 340.133 C 246.294 340.133,246.128 340.283,246.241 340.467 C 246.355 340.650,221.136 340.800,190.200 340.800 C 159.264 340.800,134.045 340.650,134.159 340.467 C 134.272 340.283,134.106 340.133,133.789 340.133 C 133.354 340.133,133.321 340.264,133.655 340.667 " stroke="none" fill="#888484" fill-rule="evenodd"></path></g></svg>