<?xml version="1.0" standalone="no"?>
<!DOCTYPE svg PUBLIC "-//W3C//DTD SVG 20010904//EN"
 "http://www.w3.org/TR/2001/REC-SVG-20010904/DTD/svg10.dtd">
<svg version="1.0" xmlns="http://www.w3.org/2000/svg"
 width="300.000000pt" height="300.000000pt" viewBox="0 0 300.000000 300.000000"
 preserveAspectRatio="xMidYMid meet">
<metadata>
Created by potrace 1.16, written by Peter Selinger 2001-2019
</metadata>
<g transform="translate(0.000000,300.000000) scale(0.127119,-0.127119)"
fill="#000000" stroke="none">
<path d="M0 1820 l0 -540 240 0 240 0 0 -100 0 -100 -240 0 -240 0 0 -540 0
-540 540 0 540 0 0 240 0 240 100 0 100 0 0 -240 0 -240 540 0 540 0 0 540 0
540 -240 0 -240 0 0 100 0 100 240 0 240 0 0 540 0 540 -540 0 -540 0 0 -240
0 -240 -100 0 -100 0 0 240 0 240 -540 0 -540 0 0 -540z m797 227 c63 -109
113 -204 110 -210 -3 -7 -39 -32 -82 -56 -64 -36 -79 -41 -89 -30 -16 17 -223
379 -228 397 -3 14 140 103 161 99 7 -1 65 -91 128 -200z m983 157 c74 -42 79
-47 69 -67 -34 -65 -214 -374 -225 -386 -10 -11 -25 -6 -89 30 -43 24 -79 49
-82 56 -7 17 222 413 238 413 5 0 46 -21 89 -46z m-1360 -467 c96 -55 181
-106 189 -113 11 -10 6 -25 -30 -89 -24 -43 -49 -79 -56 -82 -14 -5 -403 217
-410 234 -2 6 16 48 42 92 43 75 48 80 68 70 12 -7 101 -57 197 -112z m1785
42 c26 -44 44 -86 42 -92 -7 -17 -396 -239 -410 -234 -21 8 -100 158 -89 169
8 8 403 238 409 238 0 0 22 -36 48 -81z m-902 -104 c229 -60 387 -262 387
-495 0 -280 -230 -510 -510 -510 -280 0 -510 230 -510 510 0 231 157 434 383
495 69 18 179 19 250 0z m-725 -848 c38 -66 43 -81 31 -91 -12 -11 -321 -191
-386 -225 -20 -10 -25 -5 -68 70 -25 44 -45 85 -43 91 6 16 390 238 407 235 7
-1 34 -37 59 -80z m1469 -29 c107 -62 197 -118 200 -125 2 -6 -17 -48 -42 -92
l-47 -82 -63 35 c-220 124 -350 205 -349 218 2 22 83 158 95 158 6 0 98 -51
206 -112z m-1206 -228 c38 -23 69 -45 69 -51 0 -17 -224 -401 -237 -406 -6 -2
-48 16 -92 42 -75 43 -80 48 -70 68 15 29 197 346 216 375 17 27 19 27 114
-28z m867 -100 c45 -78 98 -171 118 -205 l35 -63 -82 -47 c-44 -25 -86 -44
-92 -42 -13 5 -237 389 -237 406 0 13 151 102 165 98 5 -2 47 -68 93 -147z"/>
</g>
</svg>
