<svg id="svg" version="1.1" xmlns="http://www.w3.org/2000/svg" xmlns:xlink="http://www.w3.org/1999/xlink" width="400" height="402.1276595744681" viewBox="0, 0, 400,402.1276595744681"><g id="svgg"><path id="path0" d="M180.319 5.435 C 44.378 18.101,-37.199 163.654,22.413 287.175 C 93.187 433.821,303.530 434.277,375.656 287.940 C 443.473 150.346,333.412 -8.829,180.319 5.435 M230.070 39.337 C 345.030 61.775,401.103 193.996,336.906 291.260 C 261.049 406.190,86.043 383.230,42.694 252.660 C 3.427 134.385,107.865 15.486,230.070 39.337 M183.665 104.877 C 157.806 111.136,137.355 137.120,137.253 163.846 C 137.166 186.433,166.385 186.403,169.221 163.813 C 171.992 141.747,192.191 128.940,210.792 137.456 C 239.462 150.582,232.689 190.639,201.129 194.602 C 184.777 196.655,182.979 200.153,182.979 229.898 C 182.979 258.553,185.967 264.902,199.451 264.890 C 211.021 264.879,214.884 258.424,214.890 239.096 C 214.893 227.348,215.184 224.468,216.366 224.468 C 225.539 224.468,247.650 206.328,253.970 193.617 C 277.915 145.463,235.767 92.264,183.665 104.877 M190.938 277.014 C 176.213 283.430,176.147 306.189,190.834 312.858 C 209.182 321.191,226.420 300.760,215.353 283.798 C 210.598 276.511,199.299 273.371,190.938 277.014 " stroke="none" fill="#000000" fill-rule="evenodd"></path></g></svg>