<?xml version="1.0" standalone="no"?>
<!DOCTYPE svg PUBLIC "-//W3C//DTD SVG 20010904//EN"
 "http://www.w3.org/TR/2001/REC-SVG-20010904/DTD/svg10.dtd">
<svg version="1.0" xmlns="http://www.w3.org/2000/svg"
 width="300.000000pt" height="306.000000pt" viewBox="0 0 300.000000 306.000000"
 preserveAspectRatio="xMidYMid meet">
<metadata>
Created by potrace 1.16, written by Peter Selinger 2001-2019
</metadata>
<g transform="translate(0.000000,306.000000) scale(0.100000,-0.100000)"
stroke="none">
<path d="M1188 2558 l-257 -263 -1 155 0 155 -228 -1 -227 -1 -3 -388 -2 -387
-200 -205 c-162 -166 -200 -210 -200 -232 0 -35 28 -61 66 -61 26 0 111 82
689 671 l659 671 667 -669 c570 -571 671 -668 699 -671 41 -4 60 13 60 54 0
32 -50 84 -696 734 -666 669 -698 700 -733 700 -34 0 -51 -15 -293 -262z
m-378 -231 l0 -152 -110 -110 -110 -110 0 263 0 262 110 0 110 0 0 -153z"/>
<path d="M961 1873 l-491 -498 3 -556 c2 -454 5 -559 16 -572 12 -16 95 -17
1011 -17 901 0 998 2 1004 16 3 9 6 269 6 578 l0 562 -499 492 c-432 426 -504
492 -529 492 -26 0 -93 -64 -521 -497z m1057 -188 l372 -370 0 -482 0 -483
-900 0 -900 0 0 479 0 479 443 455 442 455 85 -82 c47 -44 253 -247 458 -451z"/>
</g>
</svg>
