<svg id="svg" version="1.1" xmlns="http://www.w3.org/2000/svg" xmlns:xlink="http://www.w3.org/1999/xlink" width="400" height="393.73368146214096" viewBox="0, 0, 400,393.73368146214096"><g id="svgg"><path id="path0" d="M180.928 8.483 C 58.627 18.546,-22.250 142.183,16.781 259.418 C 59.751 388.490,224.004 432.133,324.525 341.189 C 449.793 227.854,379.701 21.460,211.488 8.336 C 197.430 7.239,195.962 7.246,180.928 8.483 M229.765 34.313 C 357.736 60.957,409.090 216.540,321.102 311.027 C 312.327 320.450,312.448 320.431,309.679 312.794 C 299.711 285.306,278.917 261.749,252.437 247.948 L 244.242 243.677 247.160 241.765 C 277.152 222.114,289.431 175.152,273.668 140.387 C 252.030 92.667,191.583 76.457,148.936 106.939 C 104.117 138.973,102.874 207.561,146.515 240.651 L 150.470 243.650 143.094 247.653 C 115.422 262.668,95.356 285.524,85.577 313.169 L 82.859 320.855 75.633 312.819 C 43.908 277.538,28.697 236.733,30.568 191.931 C 34.823 90.081,131.230 13.798,229.765 34.313 M211.530 116.472 C 256.975 128.074,272.609 183.754,239.670 216.693 C 191.689 264.674,113.445 206.992,144.922 146.844 C 157.296 123.198,186.218 110.010,211.530 116.472 M220.448 260.940 C 252.938 269.432,277.781 292.343,288.190 323.413 C 292.712 336.909,292.876 336.375,282.290 342.627 C 240.838 367.111,190.629 372.464,145.125 357.250 C 130.848 352.476,109.461 341.946,103.597 336.804 C 102.913 336.204,106.862 322.881,109.714 316.170 C 127.788 273.626,176.339 249.410,220.448 260.940 " stroke="none" fill="#000000" fill-rule="evenodd"></path></g></svg>