<svg id="svg" version="1.1" xmlns="http://www.w3.org/2000/svg" xmlns:xlink="http://www.w3.org/1999/xlink" width="400" height="400" viewBox="0, 0, 400,400"><g id="svgg"><path id="path0" d="M139.600 60.800 C 139.600 61.020,139.317 61.200,138.971 61.200 C 138.163 61.200,137.200 62.163,137.200 62.971 C 137.200 63.317,137.020 63.600,136.800 63.600 C 136.537 63.600,136.400 72.667,136.400 90.000 C 136.400 107.333,136.537 116.400,136.800 116.400 C 137.020 116.400,137.200 116.678,137.200 117.018 C 137.200 118.655,139.024 119.600,142.182 119.600 C 143.927 119.600,145.200 119.431,145.200 119.200 C 145.200 118.980,145.560 118.800,146.000 118.800 C 146.533 118.800,146.800 118.533,146.800 118.000 C 146.800 117.560,146.980 117.200,147.200 117.200 C 147.420 117.200,147.600 116.840,147.600 116.400 C 147.600 115.960,147.780 115.600,148.000 115.600 C 148.263 115.600,148.400 106.800,148.400 90.000 C 148.400 73.200,148.263 64.400,148.000 64.400 C 147.780 64.400,147.600 64.124,147.600 63.787 C 147.600 62.072,144.941 60.400,142.213 60.400 C 140.738 60.400,139.600 60.574,139.600 60.800 M255.600 60.800 C 255.600 61.020,255.322 61.200,254.982 61.200 C 254.642 61.200,253.922 61.642,253.382 62.182 L 252.400 63.164 252.400 89.995 L 252.400 116.827 253.787 118.213 C 255.192 119.618,261.200 120.418,261.200 119.200 C 261.200 118.980,261.560 118.800,262.000 118.800 C 262.533 118.800,262.800 118.533,262.800 118.000 C 262.800 117.560,262.980 117.200,263.200 117.200 C 263.420 117.200,263.600 116.840,263.600 116.400 C 263.600 115.960,263.780 115.600,264.000 115.600 C 264.262 115.600,264.400 106.800,264.400 90.000 C 264.400 73.200,264.262 64.400,264.000 64.400 C 263.780 64.400,263.600 64.124,263.600 63.787 C 263.600 62.072,260.941 60.400,258.213 60.400 C 256.738 60.400,255.600 60.574,255.600 60.800 M103.600 84.000 C 103.600 84.220,102.880 84.400,102.000 84.400 C 101.120 84.400,100.400 84.580,100.400 84.800 C 100.400 85.020,99.860 85.200,99.200 85.200 C 98.540 85.200,98.000 85.380,98.000 85.600 C 98.000 85.820,97.640 86.000,97.200 86.000 C 96.760 86.000,96.400 86.180,96.400 86.400 C 96.400 86.620,95.900 86.800,95.288 86.800 C 94.635 86.800,93.939 87.130,93.600 87.600 C 93.283 88.040,92.703 88.400,92.312 88.400 C 91.920 88.400,91.600 88.580,91.600 88.800 C 91.600 89.020,91.316 89.200,90.969 89.200 C 90.621 89.200,89.646 89.920,88.800 90.800 C 87.954 91.680,87.064 92.400,86.821 92.400 C 86.241 92.400,82.800 95.848,82.800 96.429 C 82.800 96.677,82.260 97.383,81.600 98.000 C 80.940 98.617,80.400 99.369,80.400 99.672 C 80.400 99.975,80.040 100.483,79.600 100.800 C 79.160 101.117,78.800 101.697,78.800 102.088 C 78.800 102.480,78.620 102.800,78.400 102.800 C 78.180 102.800,78.000 103.160,78.000 103.600 C 78.000 104.040,77.820 104.400,77.600 104.400 C 77.380 104.400,77.200 104.760,77.200 105.200 C 77.200 105.640,77.020 106.000,76.800 106.000 C 76.580 106.000,76.400 106.360,76.400 106.800 C 76.400 107.240,76.220 107.600,76.000 107.600 C 75.780 107.600,75.600 108.140,75.600 108.800 C 75.600 109.460,75.420 110.000,75.200 110.000 C 74.980 110.000,74.800 110.540,74.800 111.200 C 74.800 111.860,74.620 112.400,74.400 112.400 C 74.180 112.400,74.000 113.300,74.000 114.400 C 74.000 115.500,73.820 116.400,73.600 116.400 C 73.334 116.400,73.200 148.400,73.200 211.600 C 73.200 274.800,73.334 306.800,73.600 306.800 C 73.820 306.800,74.000 307.700,74.000 308.800 C 74.000 309.900,74.180 310.800,74.400 310.800 C 74.620 310.800,74.800 311.340,74.800 312.000 C 74.800 312.660,74.980 313.200,75.200 313.200 C 75.420 313.200,75.600 313.740,75.600 314.400 C 75.600 315.060,75.780 315.600,76.000 315.600 C 76.220 315.600,76.400 315.960,76.400 316.400 C 76.400 316.840,76.580 317.200,76.800 317.200 C 77.020 317.200,77.200 317.560,77.200 318.000 C 77.200 318.440,77.380 318.800,77.600 318.800 C 77.820 318.800,78.000 319.160,78.000 319.600 C 78.000 320.040,78.180 320.400,78.400 320.400 C 78.620 320.400,78.800 320.720,78.800 321.112 C 78.800 321.503,79.160 322.083,79.600 322.400 C 80.040 322.717,80.400 323.257,80.400 323.600 C 80.400 323.943,80.760 324.483,81.200 324.800 C 81.640 325.117,82.000 325.610,82.000 325.895 C 82.000 326.570,87.830 332.400,88.505 332.400 C 88.790 332.400,89.283 332.760,89.600 333.200 C 89.917 333.640,90.457 334.000,90.800 334.000 C 91.143 334.000,91.683 334.360,92.000 334.800 C 92.317 335.240,92.897 335.600,93.288 335.600 C 93.680 335.600,94.000 335.780,94.000 336.000 C 94.000 336.220,94.360 336.400,94.800 336.400 C 95.240 336.400,95.600 336.580,95.600 336.800 C 95.600 337.020,96.140 337.200,96.800 337.200 C 97.460 337.200,98.000 337.380,98.000 337.600 C 98.000 337.820,98.360 338.000,98.800 338.000 C 99.240 338.000,99.600 338.180,99.600 338.400 C 99.600 338.620,100.320 338.800,101.200 338.800 C 102.080 338.800,102.800 338.980,102.800 339.200 C 102.800 339.466,135.467 339.600,200.000 339.600 C 264.533 339.600,297.200 339.466,297.200 339.200 C 297.200 338.980,297.920 338.800,298.800 338.800 C 299.680 338.800,300.400 338.620,300.400 338.400 C 300.400 338.180,300.940 338.000,301.600 338.000 C 302.260 338.000,302.800 337.820,302.800 337.600 C 302.800 337.380,303.160 337.200,303.600 337.200 C 304.040 337.200,304.400 337.020,304.400 336.800 C 304.400 336.580,304.760 336.400,305.200 336.400 C 305.640 336.400,306.000 336.220,306.000 336.000 C 306.000 335.780,306.360 335.600,306.800 335.600 C 307.240 335.600,307.600 335.420,307.600 335.200 C 307.600 334.980,307.920 334.800,308.312 334.800 C 308.703 334.800,309.283 334.440,309.600 334.000 C 309.917 333.560,310.409 333.200,310.693 333.200 C 310.977 333.200,313.097 331.312,315.405 329.005 C 317.712 326.697,319.600 324.577,319.600 324.293 C 319.600 324.009,319.960 323.517,320.400 323.200 C 320.840 322.883,321.200 322.303,321.200 321.912 C 321.200 321.520,321.380 321.200,321.600 321.200 C 321.820 321.200,322.000 320.840,322.000 320.400 C 322.000 319.960,322.180 319.600,322.400 319.600 C 322.620 319.600,322.800 319.240,322.800 318.800 C 322.800 318.360,322.980 318.000,323.200 318.000 C 323.420 318.000,323.600 317.640,323.600 317.200 C 323.600 316.760,323.780 316.400,324.000 316.400 C 324.220 316.400,324.400 316.040,324.400 315.600 C 324.400 315.160,324.580 314.800,324.800 314.800 C 325.020 314.800,325.200 314.080,325.200 313.200 C 325.200 312.320,325.380 311.600,325.600 311.600 C 325.820 311.600,326.000 311.060,326.000 310.400 C 326.000 309.740,326.180 309.200,326.400 309.200 C 326.629 309.200,326.800 308.000,326.800 306.400 C 326.800 304.800,326.971 303.600,327.200 303.600 C 327.466 303.600,327.600 272.667,327.600 211.600 C 327.600 150.533,327.466 119.600,327.200 119.600 C 326.978 119.600,326.800 118.533,326.800 117.200 C 326.800 115.867,326.622 114.800,326.400 114.800 C 326.180 114.800,326.000 114.080,326.000 113.200 C 326.000 112.320,325.820 111.600,325.600 111.600 C 325.380 111.600,325.200 111.060,325.200 110.400 C 325.200 109.740,325.020 109.200,324.800 109.200 C 324.580 109.200,324.400 108.660,324.400 108.000 C 324.400 107.340,324.220 106.800,324.000 106.800 C 323.780 106.800,323.600 106.440,323.600 106.000 C 323.600 105.560,323.420 105.200,323.200 105.200 C 322.980 105.200,322.800 104.840,322.800 104.400 C 322.800 103.960,322.620 103.600,322.400 103.600 C 322.180 103.600,322.000 103.280,322.000 102.888 C 322.000 102.497,321.640 101.917,321.200 101.600 C 320.760 101.283,320.400 100.743,320.400 100.400 C 320.400 100.057,320.040 99.517,319.600 99.200 C 319.160 98.883,318.800 98.391,318.800 98.106 C 318.800 97.475,312.191 90.800,311.566 90.800 C 311.321 90.800,310.617 90.260,310.000 89.600 C 309.383 88.940,308.591 88.400,308.240 88.400 C 307.888 88.400,307.600 88.220,307.600 88.000 C 307.600 87.780,307.240 87.600,306.800 87.600 C 306.360 87.600,306.000 87.420,306.000 87.200 C 306.000 86.980,305.640 86.800,305.200 86.800 C 304.760 86.800,304.400 86.620,304.400 86.400 C 304.400 86.180,303.860 86.000,303.200 86.000 C 302.540 86.000,302.000 85.820,302.000 85.600 C 302.000 85.380,301.460 85.200,300.800 85.200 C 300.140 85.200,299.600 85.020,299.600 84.800 C 299.600 84.580,298.880 84.400,298.000 84.400 C 297.120 84.400,296.400 84.220,296.400 84.000 C 296.400 83.744,292.800 83.600,286.400 83.600 C 280.000 83.600,276.400 83.744,276.400 84.000 C 276.400 84.220,276.117 84.400,275.771 84.400 C 274.963 84.400,274.000 85.363,274.000 86.171 C 274.000 86.517,273.820 86.800,273.600 86.800 C 273.367 86.800,273.200 88.133,273.200 90.000 C 273.200 91.867,273.367 93.200,273.600 93.200 C 273.820 93.200,274.000 93.478,274.000 93.818 C 274.000 96.021,275.437 96.400,283.782 96.400 C 288.727 96.400,291.600 96.547,291.600 96.800 C 291.600 97.020,292.500 97.200,293.600 97.200 C 294.700 97.200,295.600 97.380,295.600 97.600 C 295.600 97.820,296.140 98.000,296.800 98.000 C 297.460 98.000,298.000 98.180,298.000 98.400 C 298.000 98.620,298.360 98.800,298.800 98.800 C 299.240 98.800,299.600 98.980,299.600 99.200 C 299.600 99.420,299.960 99.600,300.400 99.600 C 300.840 99.600,301.200 99.780,301.200 100.000 C 301.200 100.220,301.488 100.400,301.840 100.400 C 302.191 100.400,302.983 100.940,303.600 101.600 C 304.217 102.260,304.927 102.800,305.179 102.800 C 305.768 102.800,307.600 104.626,307.600 105.213 C 307.600 105.460,308.320 106.354,309.200 107.200 C 310.080 108.046,310.800 109.021,310.800 109.369 C 310.800 109.716,310.980 110.000,311.200 110.000 C 311.420 110.000,311.600 110.360,311.600 110.800 C 311.600 111.240,311.780 111.600,312.000 111.600 C 312.220 111.600,312.400 111.960,312.400 112.400 C 312.400 112.840,312.580 113.200,312.800 113.200 C 313.020 113.200,313.200 113.740,313.200 114.400 C 313.200 115.060,313.380 115.600,313.600 115.600 C 313.820 115.600,314.000 116.140,314.000 116.800 C 314.000 117.460,314.180 118.000,314.400 118.000 C 314.622 118.000,314.800 119.067,314.800 120.400 C 314.800 121.733,314.978 122.800,315.200 122.800 C 315.455 122.800,315.600 126.133,315.600 132.000 L 315.600 141.200 200.400 141.200 L 85.200 141.200 85.200 130.400 C 85.200 123.467,85.343 119.600,85.600 119.600 C 85.820 119.600,86.000 118.880,86.000 118.000 C 86.000 117.120,86.180 116.400,86.400 116.400 C 86.620 116.400,86.800 115.860,86.800 115.200 C 86.800 114.540,86.980 114.000,87.200 114.000 C 87.420 114.000,87.600 113.640,87.600 113.200 C 87.600 112.760,87.780 112.400,88.000 112.400 C 88.220 112.400,88.400 112.040,88.400 111.600 C 88.400 111.160,88.580 110.800,88.800 110.800 C 89.020 110.800,89.200 110.480,89.200 110.088 C 89.200 109.697,89.560 109.117,90.000 108.800 C 90.440 108.483,90.800 107.990,90.800 107.705 C 90.800 107.030,96.630 101.200,97.305 101.200 C 97.590 101.200,98.083 100.840,98.400 100.400 C 98.717 99.960,99.297 99.600,99.688 99.600 C 100.080 99.600,100.400 99.420,100.400 99.200 C 100.400 98.980,100.940 98.800,101.600 98.800 C 102.260 98.800,102.800 98.620,102.800 98.400 C 102.800 98.180,103.160 98.000,103.600 98.000 C 104.040 98.000,104.400 97.820,104.400 97.600 C 104.400 97.380,105.300 97.200,106.400 97.200 C 107.500 97.200,108.400 97.020,108.400 96.800 C 108.400 96.547,111.271 96.400,116.213 96.400 L 124.027 96.400 125.413 95.013 C 126.266 94.161,126.800 93.236,126.800 92.613 C 126.800 92.056,126.980 91.600,127.200 91.600 C 127.420 91.600,127.600 90.880,127.600 90.000 C 127.600 89.120,127.420 88.400,127.200 88.400 C 126.980 88.400,126.800 87.944,126.800 87.387 C 126.800 86.764,126.266 85.839,125.413 84.987 L 124.027 83.600 113.813 83.600 C 107.271 83.600,103.600 83.744,103.600 84.000 M160.400 84.000 C 160.400 84.220,160.040 84.400,159.600 84.400 C 159.100 84.400,158.800 84.667,158.800 85.112 C 158.800 85.503,158.440 86.083,158.000 86.400 C 157.121 87.034,156.758 93.200,157.600 93.200 C 157.820 93.200,158.000 93.483,158.000 93.829 C 158.000 94.637,158.963 95.600,159.771 95.600 C 160.117 95.600,160.400 95.780,160.400 96.000 C 160.400 96.264,173.938 96.400,200.213 96.400 L 240.027 96.400 241.413 95.013 C 242.792 93.635,242.800 93.605,242.800 90.000 C 242.800 86.395,242.792 86.365,241.413 84.987 L 240.027 83.600 200.213 83.600 C 173.938 83.600,160.400 83.736,160.400 84.000 M315.600 227.600 C 315.600 275.867,315.465 300.400,315.200 300.400 C 314.978 300.400,314.800 301.467,314.800 302.800 C 314.800 304.133,314.622 305.200,314.400 305.200 C 314.180 305.200,314.000 305.740,314.000 306.400 C 314.000 307.060,313.820 307.600,313.600 307.600 C 313.380 307.600,313.200 308.140,313.200 308.800 C 313.200 309.460,313.020 310.000,312.800 310.000 C 312.580 310.000,312.400 310.360,312.400 310.800 C 312.400 311.240,312.220 311.600,312.000 311.600 C 311.780 311.600,311.600 311.960,311.600 312.400 C 311.600 312.840,311.420 313.200,311.200 313.200 C 310.980 313.200,310.800 313.488,310.800 313.840 C 310.800 314.191,310.260 314.983,309.600 315.600 C 308.940 316.217,308.400 316.923,308.400 317.171 C 308.400 317.798,304.937 321.200,304.299 321.200 C 304.012 321.200,303.517 321.560,303.200 322.000 C 302.883 322.440,302.343 322.800,302.000 322.800 C 301.657 322.800,301.117 323.160,300.800 323.600 C 300.461 324.070,299.765 324.400,299.112 324.400 C 298.500 324.400,298.000 324.580,298.000 324.800 C 298.000 325.020,297.640 325.200,297.200 325.200 C 296.760 325.200,296.400 325.380,296.400 325.600 C 296.400 325.820,295.500 326.000,294.400 326.000 C 293.300 326.000,292.400 326.180,292.400 326.400 C 292.400 326.666,261.333 326.800,200.000 326.800 C 138.667 326.800,107.600 326.666,107.600 326.400 C 107.600 326.180,106.880 326.000,106.000 326.000 C 105.120 326.000,104.400 325.820,104.400 325.600 C 104.400 325.380,103.860 325.200,103.200 325.200 C 102.540 325.200,102.000 325.020,102.000 324.800 C 102.000 324.580,101.640 324.400,101.200 324.400 C 100.760 324.400,100.400 324.220,100.400 324.000 C 100.400 323.780,100.080 323.600,99.688 323.600 C 99.297 323.600,98.717 323.240,98.400 322.800 C 98.083 322.360,97.590 322.000,97.305 322.000 C 96.630 322.000,90.800 316.170,90.800 315.495 C 90.800 315.210,90.440 314.717,90.000 314.400 C 89.560 314.083,89.200 313.503,89.200 313.112 C 89.200 312.720,89.020 312.400,88.800 312.400 C 88.580 312.400,88.400 312.040,88.400 311.600 C 88.400 311.160,88.220 310.800,88.000 310.800 C 87.780 310.800,87.600 310.440,87.600 310.000 C 87.600 309.560,87.420 309.200,87.200 309.200 C 86.980 309.200,86.800 308.660,86.800 308.000 C 86.800 307.340,86.620 306.800,86.400 306.800 C 86.180 306.800,86.000 306.080,86.000 305.200 C 86.000 304.320,85.820 303.600,85.600 303.600 C 85.335 303.600,85.200 278.533,85.200 229.200 L 85.200 154.800 200.400 154.800 L 315.600 154.800 315.600 227.600 " stroke="none"  fill-rule="evenodd"></path><path id="path1" d="" stroke="none" fill="#888484" fill-rule="evenodd"></path><path id="path2" d="" stroke="none" fill="#888484" fill-rule="evenodd"></path><path id="path3" d="" stroke="none" fill="#888484" fill-rule="evenodd"></path><path id="path4" d="" stroke="none" fill="#888484" fill-rule="evenodd"></path></g></svg>