<?xml version="1.0" standalone="no"?>
<!DOCTYPE svg PUBLIC "-//W3C//DTD SVG 20010904//EN"
 "http://www.w3.org/TR/2001/REC-SVG-20010904/DTD/svg10.dtd">
<svg version="1.0" xmlns="http://www.w3.org/2000/svg"
 width="162.000000pt" height="162.000000pt" viewBox="0 0 162.000000 162.000000"
 preserveAspectRatio="xMidYMid meet">

<g transform="translate(0.000000,162.000000) scale(0.100000,-0.100000)"
 stroke="none">
<path d="M1060 1518 c-112 -58 -169 -165 -156 -292 l7 -61 -164 -92 c-89 -51
-168 -93 -173 -93 -6 0 -20 10 -32 23 -44 46 -106 69 -191 69 -87 0 -132 -17
-195 -73 -116 -102 -116 -316 0 -418 63 -56 108 -73 195 -73 85 0 147 23 191
69 12 13 26 23 32 23 5 0 83 -41 171 -92 l162 -91 -1 -91 c-1 -84 1 -95 30
-146 36 -64 107 -123 171 -140 24 -7 71 -11 106 -8 284 23 356 405 102 541
-32 17 -57 22 -125 22 -91 0 -133 -15 -197 -69 l-30 -26 -164 94 -164 93 0
103 0 103 164 93 164 93 30 -25 c64 -54 106 -69 197 -69 68 0 93 5 125 22 172
92 210 319 77 456 -55 58 -105 80 -192 85 -70 4 -79 2 -140 -30z"/>
</g>
</svg>
