<?xml version="1.0" standalone="no"?>
<!DOCTYPE svg PUBLIC "-//W3C//DTD SVG 20010904//EN"
 "http://www.w3.org/TR/2001/REC-SVG-20010904/DTD/svg10.dtd">
<svg version="1.0" xmlns="http://www.w3.org/2000/svg"
 width="300.000000pt" height="300.000000pt" viewBox="0 0 300.000000 300.000000"
 preserveAspectRatio="xMidYMid meet">

<g transform="translate(0.000000,300.000000) scale(0.100000,-0.100000)"
stroke="none">
<path d="M448 2749 c-63 -15 -157 -68 -205 -115 -24 -25 -59 -75 -76 -112
l-32 -67 0 -965 0 -965 26 -55 c59 -125 186 -217 329 -240 87 -13 1134 -13
1220 1 142 22 264 108 323 228 31 64 32 68 35 226 l4 161 -26 32 c-31 36 -73
48 -120 32 -57 -18 -61 -29 -66 -189 -4 -121 -9 -153 -26 -186 -28 -55 -100
-102 -167 -110 -28 -3 -304 -5 -612 -3 l-560 3 -47 28 c-31 18 -57 44 -75 75
l-28 47 0 910 c0 501 3 922 8 937 10 38 63 95 108 119 37 18 64 19 639 19 575
0 602 -1 639 -19 50 -26 97 -81 110 -128 6 -21 11 -93 11 -160 0 -112 2 -124
23 -148 43 -50 147 -41 178 16 7 14 9 76 7 182 -3 154 -5 165 -32 220 -52 108
-168 199 -287 226 -55 13 -1248 13 -1301 0z"/>
<path d="M2417 1890 c-32 -26 -44 -78 -25 -113 7 -14 52 -61 100 -106 l88 -81
-650 0 c-725 0 -708 2 -736 -65 -17 -43 -11 -75 23 -107 l25 -23 670 -3 670
-2 -101 -98 c-89 -85 -101 -101 -101 -130 0 -23 9 -42 29 -62 37 -37 73 -46
116 -29 54 22 303 256 331 311 41 81 29 194 -29 257 -12 13 -82 79 -155 147
-132 123 -133 124 -181 124 -34 0 -56 -6 -74 -20z"/>
</g>
</svg>
