<?xml version="1.0" standalone="no"?>
<!DOCTYPE svg PUBLIC "-//W3C//DTD SVG 20010904//EN"
 "http://www.w3.org/TR/2001/REC-SVG-20010904/DTD/svg10.dtd">
<svg version="1.0" xmlns="http://www.w3.org/2000/svg"
 width="162.000000pt" height="162.000000pt" viewBox="0 0 162.000000 162.000000"
 preserveAspectRatio="xMidYMid meet">

<g transform="translate(0.000000,162.000000) scale(0.100000,-0.100000)"
 stroke="none">
<path d="M433 1453 c-35 -2 -63 -8 -63 -13 0 -18 133 -320 141 -320 14 0 246
317 238 325 -7 6 -249 13 -316 8z"/>
<path d="M911 1451 l-63 -6 84 -120 c47 -66 100 -141 118 -167 19 -27 37 -48
40 -48 4 0 14 17 22 38 9 20 41 96 71 168 l55 131 -91 7 c-96 6 -134 6 -236
-3z"/>
<path d="M179 1258 l-132 -163 54 -8 c57 -9 345 -4 355 6 7 7 -128 327 -138
327 -3 0 -66 -73 -139 -162z"/>
<path d="M783 1403 c-6 -10 -59 -83 -116 -163 l-105 -145 124 -8 c68 -5 175
-5 239 0 l115 8 -115 160 c-62 88 -118 161 -122 162 -4 2 -13 -5 -20 -14z"/>
<path d="M1276 1412 c-7 -11 -136 -312 -136 -317 0 -9 257 -15 331 -8 l86 8
-119 145 c-140 171 -154 185 -162 172z"/>
<path d="M65 1022 c-18 -6 19 -56 295 -399 173 -215 332 -411 352 -435 l37
-43 -14 50 c-54 194 -238 811 -243 816 -10 9 -403 18 -427 11z"/>
<path d="M594 1021 l-50 -6 28 -100 c92 -319 222 -745 228 -745 4 0 32 82 63
183 84 273 197 655 197 667 0 11 -373 12 -466 1z"/>
<path d="M1110 1025 c0 -2 -49 -170 -109 -372 -131 -444 -152 -517 -144 -510
3 4 162 201 354 439 279 348 345 434 331 440 -19 7 -432 11 -432 3z"/>
</g>
</svg>
