<?xml version="1.0" standalone="no"?>
<!DOCTYPE svg PUBLIC "-//W3C//DTD SVG 20010904//EN"
 "http://www.w3.org/TR/2001/REC-SVG-20010904/DTD/svg10.dtd">
<svg version="1.0" xmlns="http://www.w3.org/2000/svg"
 width="162.000000pt" height="162.000000pt" viewBox="0 0 162.000000 162.000000"
 preserveAspectRatio="xMidYMid meet">

<g transform="translate(0.000000,162.000000) scale(0.100000,-0.100000)"
 stroke="none">
<path d="M783 1500 c-46 -19 -101 -136 -154 -331 l-23 -87 -44 -6 c-25 -3 -79
-6 -121 -6 -98 0 -235 -17 -276 -34 -21 -9 -35 -23 -39 -40 -15 -62 57 -142
229 -254 55 -36 101 -66 103 -67 1 -1 -13 -56 -32 -122 -19 -65 -42 -167 -52
-226 -17 -106 -17 -108 3 -135 30 -41 80 -41 146 -1 41 25 153 106 263 191 7
5 43 -16 100 -60 198 -152 266 -186 320 -161 26 12 29 20 32 64 1 28 -13 135
-32 239 -24 132 -32 194 -25 202 6 7 71 54 145 105 180 124 219 168 198 224
-17 44 -147 73 -406 90 l-96 7 -37 106 c-53 157 -118 285 -150 300 -14 7 -27
12 -28 11 -1 0 -12 -4 -24 -9z"/>
</g>
</svg>
