<?xml version="1.0" standalone="no"?>
<!DOCTYPE svg PUBLIC "-//W3C//DTD SVG 20010904//EN"
 "http://www.w3.org/TR/2001/REC-SVG-20010904/DTD/svg10.dtd">
<svg version="1.0" xmlns="http://www.w3.org/2000/svg"
 width="500.000000pt" height="483.000000pt" viewBox="0 0 500.000000 483.000000"
 preserveAspectRatio="xMidYMid meet">

<g transform="translate(0.000000,483.000000) scale(0.100000,-0.100000)"
stroke="none">
<path d="M3844 4335 c-74 -16 -166 -61 -216 -107 -21 -18 -431 -465 -913 -992
l-875 -960 -117 -352 -117 -352 13 -55 c17 -77 57 -129 125 -162 94 -46 124
-39 456 107 157 69 302 134 323 144 28 14 280 282 915 978 483 528 892 979
909 1004 69 96 99 250 74 374 -39 184 -191 334 -380 374 -80 17 -117 17 -197
-1z m183 -346 c66 -41 91 -134 53 -197 -28 -46 -1480 -1634 -1490 -1630 -13 5
-215 191 -215 199 0 11 1467 1613 1494 1631 37 25 115 23 158 -3z m-1737
-2008 c50 -47 72 -73 65 -80 -14 -14 -327 -152 -333 -147 -4 5 94 308 110 339
8 16 12 15 46 -13 20 -16 71 -61 112 -99z"/>
<path d="M1190 3975 c-148 -30 -289 -105 -393 -208 -69 -69 -110 -128 -153
-222 -73 -158 -69 -84 -69 -1315 0 -1250 -6 -1156 82 -1340 40 -82 58 -107
142 -190 108 -108 198 -162 337 -202 l79 -23 1125 0 1125 0 79 23 c267 77 461
271 538 538 l23 79 0 790 0 790 -23 37 c-39 63 -130 94 -199 67 -35 -13 -81
-56 -97 -89 -8 -18 -12 -249 -16 -810 l-5 -785 -32 -66 c-40 -81 -129 -169
-210 -207 l-58 -27 -1125 0 -1125 0 -56 28 c-110 54 -191 144 -228 255 -21 61
-21 76 -21 1130 0 1165 -2 1118 56 1218 31 53 119 136 173 164 95 48 124 50
939 50 844 0 795 -4 848 65 60 79 33 195 -56 242 l-43 23 -786 -1 c-605 -1
-801 -4 -851 -14z"/>
</g>
</svg>
