<?xml version="1.0" standalone="no"?>
<!DOCTYPE svg PUBLIC "-//W3C//DTD SVG 20010904//EN"
 "http://www.w3.org/TR/2001/REC-SVG-20010904/DTD/svg10.dtd">
<svg version="1.0" xmlns="http://www.w3.org/2000/svg"
 width="162.000000pt" height="162.000000pt" viewBox="0 0 162.000000 162.000000"
 preserveAspectRatio="xMidYMid meet">

<g transform="translate(0.000000,162.000000) scale(0.100000,-0.100000)"
 stroke="none">
<path d="M680 1536 c-168 -47 -315 -184 -369 -342 -61 -182 -18 -363 122 -520
129 -146 179 -260 197 -454 9 -91 13 -108 35 -130 25 -24 30 -25 150 -25 120
0 125 1 150 26 23 22 27 38 36 125 18 188 72 310 197 448 112 123 155 229 155
376 -1 147 -56 265 -174 374 -65 60 -155 108 -237 125 -69 14 -205 13 -262 -3z
m216 -533 c4 -15 2 -59 -5 -97 -13 -81 -5 -99 43 -94 22 2 30 8 28 18 -16 67
6 155 40 165 47 16 62 -52 32 -141 -15 -44 -15 -48 3 -66 19 -19 20 -18 32 21
13 45 28 60 37 37 10 -25 -153 -497 -181 -525 -12 -13 -15 -12 -21 3 -4 9 13
68 40 139 25 67 56 154 70 194 l24 71 -27 26 c-22 21 -33 24 -64 19 -26 -4
-44 -1 -63 12 -25 16 -27 16 -56 -14 -39 -40 -71 -40 -110 -1 -17 17 -31 30
-32 28 -1 -2 -13 -19 -27 -38 l-26 -35 43 -175 c53 -213 54 -224 32 -228 -12
-2 -19 7 -26 35 -82 335 -122 507 -118 511 13 13 33 -10 44 -54 l13 -49 24 39
c19 32 23 48 18 86 -5 47 10 114 28 126 33 20 50 -61 29 -135 -8 -28 -6 -41 8
-65 22 -38 52 -44 78 -15 15 17 19 36 19 103 1 45 6 91 13 104 18 31 50 29 58
-5z m94 -773 c0 -6 -65 -10 -175 -10 -110 0 -175 4 -175 10 0 6 65 10 175 10
110 0 175 -4 175 -10z m-7 -45 c1 -6 -57 -11 -157 -13 -160 -3 -216 3 -166 19
37 11 320 6 323 -6z"/>
<path d="M997 916 c-5 -15 -6 -31 -3 -34 8 -8 18 25 14 45 -3 13 -6 10 -11
-11z"/>
</g>
</svg>
