<?xml version="1.0" standalone="no"?>
<!DOCTYPE svg PUBLIC "-//W3C//DTD SVG 20010904//EN"
 "http://www.w3.org/TR/2001/REC-SVG-20010904/DTD/svg10.dtd">
<svg version="1.0" xmlns="http://www.w3.org/2000/svg"
 width="512.000000pt" height="504.000000pt" viewBox="0 0 512.000000 504.000000"
 preserveAspectRatio="xMidYMid meet">

<g transform="translate(0.000000,504.000000) scale(0.100000,-0.100000)"
 stroke="none">
<path d="M1159 4421 l-29 -29 0 -456 0 -455 -42 -12 c-137 -36 -279 -152 -342
-280 -38 -77 -66 -185 -66 -254 0 -128 60 -276 151 -371 75 -77 142 -122 229
-151 l65 -22 5 -873 c3 -480 9 -881 14 -891 11 -23 58 -47 91 -47 33 0 80 24
91 47 5 10 11 411 14 891 l5 873 68 24 c91 31 154 74 226 150 169 181 195 440
66 661 -60 104 -204 212 -322 243 l-43 12 0 455 0 456 -29 29 c-24 24 -38 29
-76 29 -38 0 -52 -5 -76 -29z m217 -1181 c63 -31 133 -101 164 -165 36 -75 35
-198 -1 -276 -34 -72 -90 -128 -165 -165 -50 -25 -71 -29 -139 -29 -65 1 -91
5 -136 27 -275 127 -256 513 29 621 67 25 182 19 248 -13z"/>
<path d="M2504 4432 c-12 -9 -27 -27 -33 -39 -8 -15 -11 -280 -11 -926 l0
-905 -33 -6 c-73 -14 -178 -75 -246 -144 -112 -113 -161 -233 -161 -395 0
-238 154 -446 388 -522 l51 -17 3 -420 3 -420 33 -29 c52 -47 126 -36 162 23
19 32 20 51 20 440 l0 406 64 22 c86 28 169 83 234 154 196 215 188 550 -18
757 -68 67 -177 132 -246 145 l-34 6 -2 915 -3 915 -33 29 c-38 34 -103 40
-138 11z m213 -2112 c76 -37 135 -102 164 -179 31 -82 24 -196 -16 -270 -110
-202 -377 -242 -535 -80 -98 101 -123 256 -60 379 86 169 278 233 447 150z"/>
<path d="M3819 4421 l-29 -29 0 -456 0 -455 -42 -12 c-228 -61 -408 -294 -408
-529 0 -136 64 -291 161 -388 71 -72 128 -108 219 -139 l65 -22 5 -883 c3
-486 6 -884 8 -886 14 -16 73 -42 95 -42 35 0 82 24 93 47 5 10 11 411 14 892
l5 873 68 23 c87 30 151 71 219 143 166 175 201 410 92 631 -63 128 -205 244
-341 280 l-43 12 0 455 0 456 -29 29 c-24 24 -38 29 -76 29 -38 0 -52 -5 -76
-29z m212 -1180 c74 -35 125 -85 161 -159 29 -58 33 -76 33 -147 0 -68 -4 -89
-29 -139 -36 -73 -90 -127 -164 -163 -80 -39 -191 -39 -273 -1 -193 89 -257
330 -134 500 39 53 109 105 169 124 60 20 180 12 237 -15z"/>
</g>
</svg>
