<?xml version="1.0" standalone="no"?>
<!DOCTYPE svg PUBLIC "-//W3C//DTD SVG 20010904//EN"
 "http://www.w3.org/TR/2001/REC-SVG-20010904/DTD/svg10.dtd">
<svg version="1.0" xmlns="http://www.w3.org/2000/svg"
 width="111.000000pt" height="111.000000pt" viewBox="0 0 111.000000 111.000000"
 preserveAspectRatio="xMidYMid meet">

<g transform="translate(0.000000,111.000000) scale(0.100000,-0.100000)"
 stroke="none">
<path d="M451 1029 c-130 -25 -274 -139 -331 -261 -92 -196 -56 -404 96 -555
278 -278 757 -121 817 268 46 296 -189 564 -487 558 -28 -1 -71 -5 -95 -10z
m281 -107 c79 -39 159 -120 196 -199 24 -52 27 -69 27 -168 0 -99 -3 -116 -27
-168 -38 -80 -117 -160 -197 -200 -62 -30 -72 -32 -176 -32 -99 0 -116 3 -168
27 -80 38 -160 117 -200 197 -30 62 -32 72 -32 176 0 98 3 116 27 167 31 68
105 149 166 185 72 42 119 53 223 50 84 -2 103 -6 161 -35z"/>
<path d="M490 778 c-33 -17 -51 -35 -68 -68 -25 -51 -25 -78 1 -94 24 -15 47
1 61 44 14 45 54 68 93 55 38 -14 60 -56 48 -92 -9 -24 -22 -34 -85 -63 -11
-5 -15 -25 -15 -81 l0 -74 30 0 c29 0 30 2 33 46 3 41 6 47 38 62 38 19 71 65
80 114 10 52 -30 123 -86 151 -24 12 -54 22 -65 22 -11 0 -41 -10 -65 -22z"/>
<path d="M522 358 c-15 -15 -15 -51 0 -66 15 -15 51 -15 66 0 28 28 7 78 -33
78 -12 0 -26 -5 -33 -12z"/>
</g>
</svg>
