<svg id="Capa_1" data-name="Capa 1" xmlns="http://www.w3.org/2000/svg" viewBox="0 0 140.77 140.6"><defs><style></style></defs><title>AGENDA</title><path class="cls-1" d="M116.55,24.88H106.13V14.46a6,6,0,0,0-6-6H24.22a6,6,0,0,0-6,6v95.31a6,6,0,0,0,6,6H34.65v10.42a6,6,0,0,0,6,6H91.23A17.38,17.38,0,0,0,101.53,128l16.64-15.66a15.82,15.82,0,0,0,4.34-10V30.84A6,6,0,0,0,116.55,24.88Zm-81.9,6v80.41H24.22a1.51,1.51,0,0,1-1.49-1.49V14.46A1.51,1.51,0,0,1,24.22,13h75.95a1.51,1.51,0,0,1,1.49,1.49V24.88H40.6A6,6,0,0,0,34.65,30.84ZM115.1,109.1,98.46,124.77a7.9,7.9,0,0,1-1.27.93V112a3.73,3.73,0,0,1,3.72-3.72h14.9A6.25,6.25,0,0,1,115.1,109.1Zm2.93-6.79a7,7,0,0,1-.2,1.49H100.91A8.21,8.21,0,0,0,92.72,112v15.46a7.79,7.79,0,0,1-1.49.18H40.6a1.51,1.51,0,0,1-1.49-1.49V30.84a1.51,1.51,0,0,1,1.49-1.49h75.95A1.51,1.51,0,0,1,118,30.84Z"/></svg>