<?xml version="1.0" standalone="no"?>
<!DOCTYPE svg PUBLIC "-//W3C//DTD SVG 20010904//EN"
 "http://www.w3.org/TR/2001/REC-SVG-20010904/DTD/svg10.dtd">
<svg version="1.0" xmlns="http://www.w3.org/2000/svg"
 width="162.000000pt" height="162.000000pt" viewBox="0 0 162.000000 162.000000"
 preserveAspectRatio="xMidYMid meet">

<g transform="translate(0.000000,162.000000) scale(0.100000,-0.100000)"
 stroke="none">
<path d="M146 1505 c-11 -8 -28 -27 -38 -42 -17 -26 -18 -60 -18 -503 0 -444
1 -478 19 -510 28 -53 57 -59 294 -59 l207 -1 0 -90 0 -90 -43 0 c-76 0 -112
-66 -66 -124 l20 -26 289 0 c265 0 290 1 311 18 30 25 30 74 -1 107 -18 19
-34 25 -67 25 l-43 0 0 89 0 90 230 3 230 3 27 28 c26 26 28 33 34 160 9 170
9 574 0 746 l-6 133 -33 29 -32 29 -648 0 c-550 -1 -650 -3 -666 -15z m1294
-500 l0 -415 -630 0 -630 0 0 399 c0 220 3 406 6 415 6 14 70 16 630 16 l624
0 0 -415z m-20 -480 c7 -8 10 -25 6 -40 -11 -41 -76 -29 -76 15 0 36 47 53 70
25z m-146 -11 c10 -25 7 -33 -13 -43 -27 -15 -56 9 -47 37 9 26 51 30 60 6z"/>
</g>
</svg>
