<?xml version="1.0" standalone="no"?>
<!DOCTYPE svg PUBLIC "-//W3C//DTD SVG 20010904//EN"
 "http://www.w3.org/TR/2001/REC-SVG-20010904/DTD/svg10.dtd">
<svg version="1.0" xmlns="http://www.w3.org/2000/svg"
 width="300.000000pt" height="306.000000pt" viewBox="0 0 300.000000 306.000000"
 preserveAspectRatio="xMidYMid meet">
<metadata>
Created by potrace 1.16, written by Peter Selinger 2001-2019
</metadata>
<g transform="translate(0.000000,306.000000) scale(0.100000,-0.100000)"
 stroke="none">
<path d="M485 2791 c-49 -22 -97 -75 -124 -137 -21 -46 -21 -58 -21 -1079 l0
-1032 26 -49 c31 -60 48 -79 98 -115 l39 -29 951 0 951 0 50 38 c29 22 62 59
77 87 l28 50 0 1052 0 1051 -24 49 c-28 54 -65 93 -115 117 -31 14 -122 16
-965 16 -879 0 -933 -1 -971 -19z m1886 -187 c20 -21 21 -27 26 -680 7 -752
-3 -1344 -21 -1370 -11 -14 -74 -17 -627 -21 -338 -3 -748 -2 -912 2 l-298 7
-15 29 c-12 25 -14 159 -12 1018 l3 989 24 26 25 27 893 -3 892 -3 22 -21z"/>
<path d="M822 2175 c-16 -36 -15 -130 1 -144 9 -7 135 -11 392 -13 438 -2 410
-9 399 97 -3 33 -7 66 -9 73 -4 9 -90 12 -388 12 l-384 0 -11 -25z"/>
<path d="M822 1645 c-16 -35 -15 -116 2 -137 12 -17 54 -18 634 -18 556 0 620
2 626 16 8 20 8 128 0 148 -6 14 -70 16 -628 16 l-623 0 -11 -25z"/>
<path d="M840 1133 c-24 -10 -30 -25 -30 -85 0 -87 2 -88 255 -88 151 0 214 3
223 12 7 7 12 41 12 84 0 56 -3 73 -16 78 -20 8 -424 6 -444 -1z"/>
</g>
</svg>
