<?xml version="1.0" standalone="no"?>
<!DOCTYPE svg PUBLIC "-//W3C//DTD SVG 20010904//EN"
 "http://www.w3.org/TR/2001/REC-SVG-20010904/DTD/svg10.dtd">
<svg version="1.0" xmlns="http://www.w3.org/2000/svg"
 width="366.000000pt" height="412.000000pt" viewBox="0 0 366.000000 412.000000"
 preserveAspectRatio="xMidYMid meet">
<metadata>
Created by potrace 1.16, written by Peter Selinger 2001-2019
</metadata>
<g transform="translate(0.000000,412.000000) scale(0.100000,-0.100000)"
 stroke="none">
<path d="M1685 4036 c-110 -35 -217 -121 -264 -214 -29 -57 -51 -146 -51 -208
l0 -53 -382 -3 -383 -3 -62 -29 c-73 -34 -153 -113 -186 -183 l-22 -48 0
-1455 0 -1455 33 -67 c36 -73 99 -134 173 -168 43 -19 70 -20 1263 -20 l1219
0 45 23 c107 53 183 155 202 273 14 86 13 2752 -1 2829 -19 104 -71 184 -155
240 -91 61 -126 65 -526 65 l-358 0 0 64 c0 181 -119 346 -294 406 -68 23
-188 26 -251 6z m205 -251 c29 -15 62 -50 79 -82 16 -30 14 -129 -3 -161 -47
-90 -149 -126 -241 -83 -71 33 -105 86 -105 164 1 84 52 151 138 177 32 10 97
3 132 -15z m-830 -544 c0 -43 5 -92 11 -109 22 -65 -11 -62 733 -62 l675 0 28
24 c27 23 28 29 31 126 l4 102 201 -4 c178 -3 205 -5 230 -22 61 -41 57 53 57
-1466 l0 -1390 -34 -38 -34 -37 -1146 -3 c-1267 -3 -1185 -7 -1226 61 -20 31
-20 61 -20 1412 0 1498 -3 1415 53 1454 35 25 62 29 255 30 l182 1 0 -79z"/>
</g>
</svg>
