<?xml version="1.0" standalone="no"?>
<!DOCTYPE svg PUBLIC "-//W3C//DTD SVG 20010904//EN"
 "http://www.w3.org/TR/2001/REC-SVG-20010904/DTD/svg10.dtd">
<svg version="1.0" xmlns="http://www.w3.org/2000/svg"
 width="303.000000pt" height="303.000000pt" viewBox="0 0 303.000000 303.000000"
 preserveAspectRatio="xMidYMid meet">
<metadata>
Created by potrace 1.16, written by Peter Selinger 2001-2019
</metadata>
<g transform="translate(0.000000,303.000000) scale(0.100000,-0.100000)"
fill="#000000" stroke="none">
<path d="M1375 2830 c-38 -17 -117 -49 -174 -71 -57 -22 -125 -51 -152 -64
-26 -14 -53 -25 -58 -25 -6 0 -34 -11 -63 -24 -103 -46 -194 -85 -315 -135
-283 -118 -314 -137 -363 -235 -19 -36 -19 -277 -1 -382 6 -38 16 -96 22 -129
84 -482 301 -897 654 -1250 128 -128 244 -212 405 -293 133 -66 170 -70 262
-28 103 46 354 210 366 238 2 5 9 8 15 8 19 0 227 214 298 307 91 117 96 125
174 258 86 148 115 207 156 310 31 78 39 105 80 250 70 246 102 631 60 714
-25 49 -92 108 -150 134 -25 11 -49 24 -52 28 -3 5 -147 68 -320 140 -173 72
-390 163 -484 202 -211 88 -254 93 -360 47z m314 -141 c69 -28 162 -66 206
-84 44 -19 121 -50 170 -70 228 -94 493 -207 531 -227 57 -31 66 -118 39 -384
-8 -82 -21 -178 -29 -214 -8 -36 -19 -90 -26 -120 -26 -121 -113 -352 -180
-475 -115 -214 -220 -355 -386 -515 -88 -85 -220 -190 -238 -190 -4 0 -22 -11
-39 -23 -18 -13 -69 -43 -114 -65 -115 -59 -155 -58 -288 7 -55 28 -109 58
-120 68 -11 11 -47 39 -80 63 -160 118 -363 346 -463 521 -71 124 -92 164
-130 249 -127 288 -196 617 -190 915 l3 139 40 23 c22 13 63 32 90 42 28 11
88 36 135 56 47 20 135 56 195 81 61 25 119 49 130 54 11 5 70 30 130 55 61
25 121 51 135 56 194 83 205 87 279 88 66 1 85 -4 200 -50z"/>
<path d="M1470 2330 c-22 -22 -26 -38 -34 -126 -3 -36 -14 -77 -26 -97 -37
-63 -155 -94 -249 -67 -19 5 -61 30 -94 56 -62 48 -80 50 -99 10 -10 -23 -7
-30 25 -65 58 -64 77 -111 77 -187 0 -92 -27 -139 -98 -171 -32 -14 -72 -23
-103 -23 -64 0 -109 -22 -109 -54 0 -36 29 -54 100 -61 108 -11 147 -30 181
-89 24 -42 29 -62 29 -117 0 -76 -13 -106 -71 -173 -37 -42 -41 -50 -30 -72
16 -36 38 -40 69 -12 79 71 104 83 184 87 143 6 203 -47 215 -191 5 -53 12
-77 28 -96 20 -23 26 -25 49 -14 27 12 29 17 44 135 8 65 15 84 38 109 40 42
83 58 158 58 81 0 107 -10 172 -66 29 -24 56 -44 62 -44 12 0 42 34 42 48 0 7
-21 39 -47 73 l-48 61 -3 94 c-4 90 -3 96 23 129 35 47 86 71 170 79 70 7 115
31 115 62 0 29 -51 54 -111 54 -77 0 -140 28 -173 77 -23 33 -26 47 -26 126 0
84 2 91 32 133 17 24 35 44 39 44 5 0 15 13 23 29 14 26 14 30 -8 50 -12 11
-26 21 -30 21 -5 0 -30 -18 -56 -40 -63 -53 -107 -70 -177 -70 -123 0 -189 67
-200 202 -4 54 -11 79 -26 96 -25 27 -32 27 -57 2z m99 -344 c39 -35 115 -66
162 -66 57 0 79 -18 79 -66 0 -43 31 -126 64 -169 38 -50 37 -122 -4 -179 -34
-48 -50 -90 -59 -161 l-6 -50 -64 -8 c-66 -8 -105 -23 -158 -63 -48 -36 -126
-34 -179 5 -41 30 -120 61 -157 61 -37 0 -46 13 -66 87 -10 39 -32 94 -50 122
-43 70 -43 138 -1 204 27 43 54 124 62 187 3 23 8 25 70 31 54 4 79 13 125 42
48 30 67 36 112 37 33 0 61 -6 70 -14z"/>
</g>
</svg>
