<?xml version="1.0" standalone="no"?>
<!DOCTYPE svg PUBLIC "-//W3C//DTD SVG 20010904//EN"
 "http://www.w3.org/TR/2001/REC-SVG-20010904/DTD/svg10.dtd">
<svg version="1.0" xmlns="http://www.w3.org/2000/svg"
 width="200.000000pt" height="200.000000pt" viewBox="0 0 200.000000 200.000000"
 preserveAspectRatio="xMidYMid meet">

<g transform="translate(0.000000,200.000000) scale(0.100000,-0.100000)"
 stroke="none">
<path d="M860 1844 c-322 -62 -582 -278 -681 -567 -162 -472 100 -968 586
-1109 69 -20 102 -23 240 -23 188 0 239 11 390 85 224 108 391 312 456 555 30
113 30 307 0 419 -78 292 -296 517 -591 611 -74 24 -104 28 -230 31 -80 1
-156 0 -170 -2z m326 -114 c279 -70 500 -289 568 -561 21 -86 21 -262 0 -348
-21 -85 -61 -173 -112 -247 -38 -57 -109 -132 -114 -123 -2 2 -21 40 -43 84
-46 92 -123 175 -206 219 -30 16 -56 31 -58 32 -2 2 17 22 42 44 29 26 59 66
79 108 31 62 33 74 33 167 0 89 -3 106 -28 157 -17 35 -51 78 -87 111 -192
178 -491 118 -603 -121 -27 -57 -31 -77 -31 -147 1 -111 28 -180 105 -259 32
-33 58 -60 56 -60 -35 -10 -116 -66 -167 -116 -51 -49 -77 -86 -108 -148 l-40
-84 -48 59 c-109 130 -156 230 -181 385 -14 85 -15 115 -5 192 41 326 265 578
581 656 106 26 264 26 367 0z m-59 -386 c101 -48 160 -152 150 -264 -6 -67
-26 -111 -76 -163 -59 -63 -104 -82 -196 -82 -63 0 -89 5 -121 22 -104 56
-154 134 -154 242 1 209 206 335 397 245z m-17 -630 c83 -18 167 -70 227 -138
47 -53 90 -135 95 -181 3 -29 -1 -32 -90 -76 -127 -64 -224 -83 -379 -77 -133
6 -243 36 -336 92 -48 29 -52 35 -49 66 7 84 110 219 209 272 103 56 204 69
323 42z"/>
</g>
</svg>
