<?xml version="1.0" standalone="no"?>
<!DOCTYPE svg PUBLIC "-//W3C//DTD SVG 20010904//EN"
 "http://www.w3.org/TR/2001/REC-SVG-20010904/DTD/svg10.dtd">
<svg version="1.0" xmlns="http://www.w3.org/2000/svg"
 width="162.000000pt" height="162.000000pt" viewBox="0 0 162.000000 162.000000"
 preserveAspectRatio="xMidYMid meet">

<g transform="translate(0.000000,162.000000) scale(0.100000,-0.100000)"
 stroke="none">
<path d="M650 1556 c-163 -36 -268 -93 -390 -216 -106 -105 -158 -191 -202
-330 -20 -64 -23 -95 -22 -215 0 -130 3 -147 33 -237 75 -227 268 -419 501
-498 49 -17 98 -23 196 -27 167 -7 247 10 387 80 87 43 116 64 193 141 77 77
98 106 141 193 70 140 87 220 80 387 -8 219 -63 342 -222 502 -112 114 -181
157 -315 199 -105 33 -278 42 -380 21z m168 -88 c-2 -57 -6 -73 -18 -73 -12 0
-16 16 -18 73 -3 67 -2 72 18 72 20 0 21 -5 18 -72z m10 -368 c1 -118 7 -219
12 -224 5 -5 65 42 154 123 136 123 176 150 176 117 0 -8 -66 -74 -146 -146
-97 -88 -143 -137 -140 -147 3 -8 6 -19 6 -24 0 -5 60 -9 136 -9 135 0 135 0
132 -22 -3 -22 -6 -23 -143 -26 -107 -2 -147 -6 -171 -19 -91 -48 -173 74 -94
140 l30 26 0 209 c0 115 3 212 7 216 4 4 14 5 23 4 13 -3 15 -33 18 -218z
m464 158 c-30 -30 -33 -31 -48 -16 -16 15 -15 19 15 49 30 30 34 31 49 15 15
-15 14 -18 -16 -48z m-937 20 c24 -28 25 -32 11 -47 -15 -14 -19 -12 -52 21
-20 20 -33 41 -30 47 13 20 44 11 71 -21z m-152 -472 c9 -24 -15 -36 -74 -36
-59 0 -75 9 -65 35 8 21 131 21 139 1z m1337 -6 c0 -18 -7 -20 -70 -20 -63 0
-70 2 -70 20 0 18 7 20 70 20 63 0 70 -2 70 -20z m-1163 -447 c6 -16 -50 -73
-71 -73 -25 0 -19 31 11 62 28 29 53 33 60 11z m920 -15 c27 -25 30 -46 7 -55
-19 -7 -64 34 -64 59 0 25 29 23 57 -4z m-472 -208 c0 -60 -2 -65 -22 -68 -22
-3 -23 0 -23 61 0 68 5 79 30 75 12 -3 15 -18 15 -68z"/>
</g>
</svg>
