<?xml version="1.0" standalone="no"?>
<!DOCTYPE svg PUBLIC "-//W3C//DTD SVG 20010904//EN"
 "http://www.w3.org/TR/2001/REC-SVG-20010904/DTD/svg10.dtd">
<svg version="1.0" xmlns="http://www.w3.org/2000/svg"
 width="500.000000pt" height="500.000000pt" viewBox="0 0 500.000000 500.000000"
 preserveAspectRatio="xMidYMid meet">
<metadata>
Created by potrace 1.16, written by Peter Selinger 2001-2019
</metadata>
<g transform="translate(0.000000,500.000000) scale(0.211864,-0.211864)"
 stroke="none">
<path d="M1090 2125 l0 -235 90 0 90 0 0 235 0 235 -90 0 -90 0 0 -235z"/>
<path d="M583 2196 l-73 -42 115 -199 c64 -109 117 -201 120 -203 6 -6 155 81
155 90 0 18 -225 398 -235 398 -5 -1 -43 -20 -82 -44z"/>
<path d="M1572 2045 c-61 -107 -112 -198 -112 -203 0 -9 149 -96 155 -90 3 2
56 94 120 203 l115 199 -73 42 c-39 24 -77 43 -82 44 -6 0 -61 -88 -123 -195z"/>
<path d="M162 1774 c-23 -40 -42 -77 -42 -81 0 -9 383 -233 398 -233 9 0 96
149 90 155 -5 5 -345 203 -378 220 -25 13 -26 12 -68 -61z"/>
<path d="M1955 1735 c-109 -64 -201 -117 -203 -120 -6 -6 81 -155 90 -155 18
0 398 225 398 235 -1 5 -20 43 -44 82 l-42 73 -199 -115z"/>
<path d="M1030 1657 c-217 -74 -350 -255 -350 -477 0 -278 222 -500 500 -500
278 0 500 222 500 500 0 227 -146 418 -369 484 -80 23 -201 20 -281 -7z"/>
<path d="M0 1180 l0 -90 235 0 235 0 0 90 0 90 -235 0 -235 0 0 -90z"/>
<path d="M1890 1180 l0 -90 235 0 235 0 0 90 0 90 -235 0 -235 0 0 -90z"/>
<path d="M312 787 c-105 -61 -192 -116 -192 -122 1 -5 20 -43 44 -82 l42 -73
199 115 c109 64 201 117 203 120 7 7 -81 155 -92 155 -6 -1 -98 -51 -204 -113z"/>
<path d="M1791 824 c-24 -41 -41 -77 -39 -79 2 -3 94 -56 203 -120 l199 -115
42 73 c24 39 43 77 44 82 0 10 -380 235 -398 235 -4 0 -27 -34 -51 -76z"/>
<path d="M627 408 l-117 -202 73 -43 c39 -23 77 -42 82 -43 10 0 235 380 235
398 0 7 -140 92 -152 92 -2 0 -57 -91 -121 -202z"/>
<path d="M1533 568 c-40 -23 -73 -46 -73 -51 0 -17 225 -397 235 -397 5 1 43
20 82 43 l73 43 -117 202 c-64 111 -119 202 -122 202 -3 0 -39 -19 -78 -42z"/>
<path d="M1090 235 l0 -235 90 0 90 0 0 235 0 235 -90 0 -90 0 0 -235z"/>
</g>
</svg>
