<?xml version="1.0" standalone="no"?>
<!DOCTYPE svg PUBLIC "-//W3C//DTD SVG 20010904//EN"
 "http://www.w3.org/TR/2001/REC-SVG-20010904/DTD/svg10.dtd">
<svg version="1.0" xmlns="http://www.w3.org/2000/svg"
 width="517.000000pt" height="678.000000pt" viewBox="0 0 517.000000 678.000000"
 preserveAspectRatio="xMidYMid meet">
<metadata>
Created by potrace 1.16, written by Peter Selinger 2001-2019
</metadata>
<g transform="translate(0.000000,678.000000) scale(0.100000,-0.100000)"
 stroke="none">
<path d="M2436 6689 c-212 -52 -384 -193 -475 -391 -51 -111 -65 -173 -66
-295 l0 -102 -615 -3 c-605 -3 -616 -3 -680 -25 -198 -68 -346 -220 -407 -418
-17 -58 -18 -156 -18 -2390 0 -2234 1 -2332 18 -2390 62 -201 213 -355 412
-418 l70 -22 1925 0 1925 0 70 22 c199 63 350 217 412 418 17 58 18 156 18
2390 0 2234 -1 2332 -18 2390 -61 198 -209 350 -407 418 -64 22 -75 22 -680
25 l-615 3 0 102 c-1 122 -15 184 -66 295 -141 306 -480 471 -803 391z m286
-413 c147 -65 216 -235 158 -388 -40 -108 -160 -188 -280 -188 -120 0 -240 80
-280 188 -57 152 11 321 155 388 71 32 175 33 247 0z m-1332 -930 c0 -142 2
-155 23 -187 49 -74 -35 -69 1187 -69 1222 0 1138 -5 1187 69 21 32 23 44 23
188 l0 154 328 -3 c361 -4 367 -5 429 -68 18 -18 38 -49 45 -69 19 -53 19
-4539 0 -4592 -16 -47 -74 -105 -121 -121 -53 -19 -3729 -19 -3782 0 -44 15
-97 65 -118 112 -14 32 -16 245 -19 2270 -1 1479 1 2253 8 2289 17 93 74 153
161 170 24 5 180 9 347 10 l302 1 0 -154z"/>
<path d="M2035 4060 l-310 -310 -135 136 c-74 75 -145 140 -158 145 -34 13
-65 -7 -159 -104 -124 -126 -135 -99 169 -404 218 -218 257 -253 282 -253 26
0 85 54 453 423 333 332 423 427 423 447 0 35 -195 230 -230 230 -19 0 -97
-72 -335 -310z"/>
<path d="M2525 3470 l-200 -200 713 0 714 0 29 29 29 29 0 142 0 142 -29 29
-29 29 -514 0 -513 0 -200 -200z"/>
<path d="M1523 2550 c-96 -19 -187 -98 -217 -187 -20 -60 -20 -157 0 -216 22
-65 91 -139 156 -168 75 -32 184 -33 251 0 68 33 132 101 156 166 66 176 -37
367 -217 404 -59 12 -69 12 -129 1z"/>
<path d="M2265 2449 c-57 -17 -65 -39 -65 -195 0 -129 2 -142 21 -163 11 -12
32 -26 46 -32 33 -12 1443 -12 1476 0 14 6 35 20 46 32 19 21 21 34 21 161 0
158 -8 181 -69 198 -45 12 -1433 12 -1476 -1z"/>
</g>
</svg>
